<svg width="60" height="60" viewBox="0 0 60 60" fill="none" xmlns="http://www.w3.org/2000/svg">
<path fill-rule="evenodd" clip-rule="evenodd" d="M53.1581 6.01922C53.3043 6.03643 53.4411 6.10051 53.5479 6.20191C53.6563 6.30515 53.7277 6.44118 53.7511 6.58905C53.7746 6.73693 53.7486 6.88842 53.6774 7.0201L41.1388 30.8837C41.0808 30.9926 40.9944 31.0837 40.8887 31.1473C40.7831 31.211 40.6621 31.2448 40.5388 31.2451C40.4523 31.2463 40.3665 31.2301 40.2865 31.1973C40.1303 31.1347 40.0028 31.0164 39.9285 30.8654C39.8542 30.7143 39.8385 30.5412 39.8842 30.3792L43.4161 17.861L40.1229 19.7633C40.0055 19.8302 39.8709 19.8607 39.7362 19.851C39.6014 19.8413 39.4726 19.7918 39.3661 19.7087C39.2589 19.6256 39.179 19.5125 39.1365 19.3838C39.094 19.255 39.0908 19.1165 39.1274 18.986L43.1229 5.07689C43.1714 4.90727 43.2839 4.7631 43.4365 4.67464L50.4592 0.617818C50.5827 0.544822 50.7261 0.512632 50.869 0.525849C51.0118 0.539067 51.1469 0.597018 51.2549 0.691435C51.3629 0.785852 51.4384 0.911935 51.4706 1.05174C51.5028 1.19154 51.4901 1.33794 51.4342 1.47009L48.5706 8.49963L52.7365 6.10645C52.8639 6.0326 53.0118 6.00202 53.1581 6.01922ZM45.1888 16.6269L42.9661 24.4746L51.3797 8.49281L47.5274 10.7155C47.405 10.7857 47.2639 10.8162 47.1234 10.8027C46.983 10.7893 46.8502 10.7326 46.7433 10.6406C46.6348 10.5468 46.5586 10.4213 46.5255 10.2817C46.4925 10.1422 46.5043 9.99573 46.5592 9.86327L49.457 2.79964L44.3911 5.72463L40.907 17.7451L44.1865 15.8497C44.3042 15.7799 44.4401 15.7471 44.5766 15.7556C44.7131 15.7642 44.8439 15.8135 44.952 15.8973C45.0601 15.9812 45.1405 16.0956 45.1827 16.2257C45.2249 16.3558 45.2271 16.4956 45.1888 16.6269ZM10.0339 14.3361C9.96154 15.0934 10.0661 15.8571 10.3395 16.5671C10.6128 17.277 11.0474 17.9138 11.6089 18.427C11.7367 18.554 11.9095 18.6252 12.0896 18.6252C12.2698 18.6252 12.4426 18.554 12.5703 18.427C12.6342 18.3636 12.6849 18.2882 12.7196 18.2051C12.7542 18.122 12.772 18.0329 12.772 17.9429C12.772 17.8529 12.7542 17.7638 12.7196 17.6807C12.6849 17.5976 12.6342 17.5222 12.5703 17.4588C12.1513 17.0938 11.8248 16.6347 11.6174 16.1192C11.41 15.6037 11.3277 15.0464 11.3771 14.4929C11.5476 13.252 12.5226 12.0588 14.1044 11.1384C18.093 8.84744 24.6112 8.86108 28.6339 11.1384C30.4612 12.1815 31.4635 13.5315 31.4635 14.9293C31.4635 16.327 30.4749 17.6565 28.6817 18.6724C25.9544 20.2133 22.0271 20.7588 18.3385 20.0975C18.249 20.0813 18.1571 20.083 18.0682 20.1024C17.9793 20.1217 17.8951 20.1584 17.8204 20.2104C17.7457 20.2623 17.682 20.3284 17.6328 20.4049C17.5837 20.4815 17.5501 20.567 17.5339 20.6565C17.5178 20.7461 17.5195 20.8379 17.5389 20.9268C17.5583 21.0157 17.595 21.0999 17.6469 21.1746C17.6988 21.2493 17.7649 21.3131 17.8415 21.3622C17.918 21.4114 18.0035 21.445 18.093 21.4611C19.205 21.6574 20.3321 21.7555 21.4612 21.7543C24.2184 21.8219 26.9475 21.186 29.3908 19.9065C31.6271 18.6247 32.8544 16.8793 32.8544 14.9838C32.8544 13.0884 31.6067 11.3088 29.343 10.0066C24.9453 7.49064 17.8203 7.47701 13.4499 10.0066C11.4794 11.1179 10.2589 12.6656 10.0339 14.3361ZM32.002 9.49519C31.9244 9.44586 31.8376 9.41273 31.7469 9.39781C31.6561 9.38288 31.5633 9.38646 31.474 9.40834C31.3847 9.43022 31.3007 9.46994 31.2271 9.52511C31.1536 9.58028 31.0919 9.64974 31.0459 9.72935C30.9999 9.80897 30.9704 9.89708 30.9594 9.98837C30.9483 10.0797 30.9558 10.1722 30.9814 10.2605C31.007 10.3488 31.0502 10.4311 31.1084 10.5023C31.1667 10.5734 31.2387 10.6321 31.3202 10.6747C33.8361 12.127 35.227 14.0088 35.2542 15.9792V16.102C35.2542 18.052 33.8497 19.9065 31.3815 21.3315C25.927 24.4747 17.0633 24.4611 11.5474 21.2906C9.01106 19.8247 7.60652 17.9225 7.60652 15.9247C7.60652 13.927 8.97016 12.0724 11.4861 10.627C11.6345 10.5326 11.7407 10.3846 11.7825 10.2138C11.8244 10.043 11.7986 9.86263 11.7106 9.71038C11.6226 9.55813 11.4791 9.44577 11.3103 9.39677C11.1414 9.34777 10.9601 9.36594 10.8042 9.44746C7.86561 11.1452 6.24288 13.4429 6.24288 15.9247V15.9656V50.4315C6.23951 50.4564 6.23951 50.4816 6.24288 50.5065C6.29743 52.9611 7.9338 55.2384 10.8588 56.9225C14.1351 58.6683 17.8039 59.5462 21.5156 59.4725C25.1835 59.5483 28.8098 58.6846 32.0497 56.9634C34.9883 55.2656 36.6042 52.9679 36.6042 50.4929C36.6076 50.4726 36.6076 50.4519 36.6042 50.4315V16.1156V16.0406C36.6247 13.5384 34.9815 11.227 32.002 9.49519ZM35.2542 21.6247V50.3565C35.2512 50.3792 35.2512 50.4021 35.2542 50.4247C35.2542 52.4156 33.8906 54.3111 31.3815 55.7702C25.927 58.9134 17.0633 58.8997 11.5542 55.7293C9.03833 54.277 7.64061 52.3883 7.62016 50.4111V50.3565V19.6747C8.51063 20.8078 9.61873 21.7513 10.8792 22.4497C14.1574 24.1901 17.8253 25.0654 21.5361 24.9929C25.2062 25.0694 28.8349 24.2056 32.077 22.4838C33.3106 21.7948 34.3952 20.8678 35.2679 19.7565L35.2542 21.6247ZM21.4102 10.0553C22.5801 10.0553 23.7334 10.333 24.775 10.8656C25.2311 11.0696 25.6223 11.3949 25.9061 11.8062C26.1898 12.2174 26.3552 12.6987 26.3841 13.1974V15.686C26.3601 16.1843 26.2 16.6664 25.9211 17.0799C25.6422 17.4935 25.2552 17.8226 24.8023 18.0315C23.7621 18.569 22.6083 18.8495 21.4375 18.8495C20.2667 18.8495 19.1129 18.569 18.0727 18.0315C17.6225 17.8214 17.2362 17.4954 16.9535 17.0868C16.6707 16.6783 16.5016 16.2019 16.4636 15.7065V13.0406C16.5291 12.5762 16.7075 12.1351 16.9833 11.7558C17.2591 11.3766 17.6239 11.0709 18.0455 10.8656C19.0871 10.333 20.2403 10.0553 21.4102 10.0553ZM24.8227 15.5156C23.5504 16.1778 22.1089 16.4438 20.6841 16.2792H20.6773C20.4964 16.262 20.3298 16.1737 20.2141 16.0337C20.0984 15.8937 20.0431 15.7135 20.0602 15.5326C20.0774 15.3518 20.1657 15.1852 20.3057 15.0695C20.4457 14.9538 20.626 14.8984 20.8068 14.9156C21.9501 15.0495 23.1075 14.8432 24.1341 14.3224C24.7068 13.9951 25.0341 13.5861 25.0341 13.1906C25.0341 12.7951 24.7 12.3724 24.1136 12.0383C23.2767 11.6308 22.3581 11.4191 21.4273 11.4191C20.4964 11.4191 19.5778 11.6308 18.7409 12.0383C18.5201 12.1347 18.3245 12.2809 18.1695 12.4654C18.0146 12.6499 17.9044 12.8678 17.8477 13.102V15.6929C17.8546 16.0883 18.1886 16.511 18.775 16.8451C19.6083 17.2606 20.5268 17.4768 21.458 17.4768C22.3891 17.4768 23.3076 17.2606 24.1409 16.8451C24.7205 16.5179 25.0409 16.0951 25.0409 15.6929V15.3793L24.8227 15.5156ZM31.3679 25.9133C31.2642 25.8535 31.1467 25.822 31.027 25.822C30.9073 25.822 30.7897 25.8535 30.6861 25.9133C28.667 26.8894 26.4938 27.5076 24.2634 27.7406C24.097 27.7607 23.944 27.8413 23.8333 27.967C23.7226 28.0928 23.6621 28.2549 23.6634 28.4224V54.0247C23.6634 54.2055 23.7352 54.3789 23.8631 54.5068C23.9909 54.6347 24.1643 54.7065 24.3452 54.7065H24.4202C26.8106 54.4597 29.1391 53.795 31.2997 52.7429C31.4122 52.6862 31.5067 52.5995 31.5729 52.4924C31.6391 52.3853 31.6743 52.262 31.6747 52.1361V26.4929C31.6764 26.3783 31.6492 26.2651 31.5956 26.1638C31.5419 26.0625 31.4636 25.9763 31.3679 25.9133ZM30.3315 39.2906C28.6544 40.0582 26.8743 40.5773 25.0474 40.8315V35.677C26.8623 35.4286 28.638 34.9498 30.3315 34.252V39.2906ZM25.0474 42.2224C26.8636 41.9806 28.6401 41.5015 30.3315 40.7974V45.1133C28.6521 45.8748 26.8729 46.3937 25.0474 46.6543V42.2224ZM25.0474 28.9883C26.8629 28.7433 28.639 28.2643 30.3315 27.5633V32.7451C28.6533 33.5097 26.8736 34.0287 25.0474 34.2861V28.9883ZM25.0474 53.2133V48.0451C26.8626 47.8023 28.6387 47.3256 30.3315 46.6269V51.6861C28.6529 52.4469 26.8732 52.9613 25.0474 53.2133Z" fill="#B46527"/>
<path d="M53.5479 6.20191L53.6858 6.05707L53.6856 6.05687L53.5479 6.20191ZM53.1581 6.01922L53.1814 5.82059L53.1814 5.82059L53.1581 6.01922ZM53.7511 6.58905L53.9487 6.55778L53.9487 6.55777L53.7511 6.58905ZM53.6774 7.0201L53.5015 6.92494L53.5004 6.92707L53.6774 7.0201ZM41.1388 30.8837L41.3153 30.9777L41.3158 30.9768L41.1388 30.8837ZM40.5388 31.2451L40.5383 31.0451L40.5358 31.0451L40.5388 31.2451ZM40.2865 31.1973L40.3623 31.0123L40.361 31.0117L40.2865 31.1973ZM39.9285 30.8654L40.108 30.7771L40.108 30.7771L39.9285 30.8654ZM39.8842 30.3792L40.0767 30.4336L40.0767 30.4335L39.8842 30.3792ZM43.4161 17.861L43.6085 17.9153L43.7422 17.4416L43.316 17.6878L43.4161 17.861ZM40.1229 19.7633L40.2219 19.937L40.2229 19.9365L40.1229 19.7633ZM39.7362 19.851L39.7218 20.0505L39.7218 20.0505L39.7362 19.851ZM39.3661 19.7087L39.489 19.551L39.4886 19.5507L39.3661 19.7087ZM39.1274 18.986L38.9352 18.9308L38.9348 18.932L39.1274 18.986ZM43.1229 5.07689L43.3151 5.13211L43.3152 5.13194L43.1229 5.07689ZM43.4365 4.67464L43.3365 4.50146L43.3362 4.5016L43.4365 4.67464ZM50.4592 0.617818L50.5593 0.791008L50.561 0.789994L50.4592 0.617818ZM50.869 0.525849L50.8505 0.724998L50.8505 0.724998L50.869 0.525849ZM51.2549 0.691435L51.1233 0.842015L51.1233 0.842015L51.2549 0.691435ZM51.4706 1.05174L51.6655 1.00685L51.6655 1.00684L51.4706 1.05174ZM51.4342 1.47009L51.25 1.39226L51.249 1.39464L51.4342 1.47009ZM48.5706 8.49963L48.3854 8.42418L48.166 8.96272L48.6702 8.67306L48.5706 8.49963ZM52.7365 6.10645L52.8361 6.27987L52.8368 6.27948L52.7365 6.10645ZM42.9661 24.4746L42.7736 24.4201L43.143 24.5678L42.9661 24.4746ZM45.1888 16.6269L44.9968 16.5709L44.9964 16.5724L45.1888 16.6269ZM51.3797 8.49281L51.5567 8.58598L51.8789 7.97386L51.2797 8.31958L51.3797 8.49281ZM47.5274 10.7155L47.6269 10.8891L47.6274 10.8888L47.5274 10.7155ZM47.1234 10.8027L47.1425 10.6036L47.1425 10.6036L47.1234 10.8027ZM46.7433 10.6406L46.6126 10.7919L46.6128 10.7921L46.7433 10.6406ZM46.5592 9.86327L46.744 9.93991L46.7443 9.93918L46.5592 9.86327ZM49.457 2.79964L49.642 2.87555L49.8644 2.33346L49.357 2.62644L49.457 2.79964ZM44.3911 5.72463L44.2911 5.55143L44.2214 5.59166L44.199 5.66895L44.3911 5.72463ZM40.907 17.7451L40.7149 17.6894L40.5764 18.1671L41.007 17.9182L40.907 17.7451ZM44.1865 15.8497L44.2866 16.0228L44.2885 16.0217L44.1865 15.8497ZM44.952 15.8973L45.0746 15.7393L45.0746 15.7393L44.952 15.8973ZM45.1827 16.2257L44.9925 16.2874L44.9925 16.2874L45.1827 16.2257ZM10.3395 16.5671L10.1528 16.639L10.1528 16.639L10.3395 16.5671ZM10.0339 14.3361L9.83559 14.3094L9.83486 14.317L10.0339 14.3361ZM11.6089 18.427L11.7501 18.285L11.7439 18.2794L11.6089 18.427ZM12.5703 18.427L12.4295 18.285L12.4293 18.2851L12.5703 18.427ZM12.5703 17.4588L12.7114 17.3165L12.7017 17.308L12.5703 17.4588ZM11.6174 16.1192L11.8029 16.0445L11.8029 16.0445L11.6174 16.1192ZM11.3771 14.4929L11.1788 14.4656L11.1779 14.4751L11.3771 14.4929ZM14.1044 11.1384L14.0048 10.9649L14.0038 10.9655L14.1044 11.1384ZM28.6339 11.1384L28.7331 10.9647L28.7325 10.9643L28.6339 11.1384ZM28.6817 18.6724L28.7801 18.8466L28.7803 18.8464L28.6817 18.6724ZM18.3385 20.0975L18.3031 20.2943L18.3032 20.2943L18.3385 20.0975ZM18.0682 20.1024L18.1108 20.2978L18.1108 20.2978L18.0682 20.1024ZM17.8204 20.2104L17.7063 20.0461L17.7063 20.0461L17.8204 20.2104ZM17.6328 20.4049L17.8011 20.513L17.8011 20.513L17.6328 20.4049ZM17.5339 20.6565L17.7308 20.692L17.7308 20.692L17.5339 20.6565ZM17.5389 20.9268L17.7343 20.8842L17.7343 20.8842L17.5389 20.9268ZM18.093 21.4611L18.0576 21.6579L18.0583 21.658L18.093 21.4611ZM21.4612 21.7543L21.4661 21.5543L21.461 21.5543L21.4612 21.7543ZM29.3908 19.9065L29.4836 20.0838L29.4902 20.08L29.3908 19.9065ZM29.343 10.0066L29.4428 9.83319L29.4423 9.83295L29.343 10.0066ZM13.4499 10.0066L13.5481 10.1808L13.55 10.1796L13.4499 10.0066ZM31.7469 9.39781L31.7793 9.20046L31.7793 9.20046L31.7469 9.39781ZM32.002 9.49519L31.8946 9.6641L31.9015 9.6681L32.002 9.49519ZM31.474 9.40834L31.4264 9.21408L31.4264 9.21408L31.474 9.40834ZM31.2271 9.52511L31.3471 9.68512L31.3471 9.68511L31.2271 9.52511ZM30.9594 9.98837L30.7608 9.96425L30.7608 9.96425L30.9594 9.98837ZM30.9814 10.2605L31.1735 10.2048L31.1735 10.2048L30.9814 10.2605ZM31.1084 10.5023L31.2632 10.3756L31.2632 10.3756L31.1084 10.5023ZM31.3202 10.6747L31.4202 10.5014L31.4129 10.4975L31.3202 10.6747ZM35.2542 15.9792L35.4543 15.9792L35.4542 15.9765L35.2542 15.9792ZM31.3815 21.3315L31.4814 21.5048L31.4815 21.5047L31.3815 21.3315ZM11.5474 21.2906L11.4473 21.4638L11.4478 21.464L11.5474 21.2906ZM11.4861 10.627L11.5858 10.8006L11.5934 10.7958L11.4861 10.627ZM11.7106 9.71038L11.8837 9.61029L11.8837 9.61029L11.7106 9.71038ZM11.3103 9.39677L11.2545 9.58885L11.2545 9.58885L11.3103 9.39677ZM10.8042 9.44746L10.7115 9.27008L10.7042 9.27428L10.8042 9.44746ZM6.24288 50.4315L6.44108 50.4584L6.44288 50.445V50.4315H6.24288ZM6.24288 50.5065L6.44283 50.5021L6.44258 50.4908L6.44108 50.4797L6.24288 50.5065ZM10.8588 56.9225L10.7589 57.0959L10.7647 57.099L10.8588 56.9225ZM21.5156 59.4725L21.5197 59.2723L21.5116 59.2725L21.5156 59.4725ZM32.0497 56.9634L32.1436 57.1401L32.1497 57.1365L32.0497 56.9634ZM36.6042 50.4929L36.4068 50.4608L36.4042 50.4767V50.4929H36.6042ZM36.6042 50.4315H36.4042V50.4477L36.4068 50.4637L36.6042 50.4315ZM36.6042 16.0406L36.4042 16.039V16.0406H36.6042ZM35.2542 50.3565L35.4525 50.3829L35.4542 50.3698V50.3565H35.2542ZM35.2542 21.6247L35.0542 21.6233V21.6247H35.2542ZM35.2542 50.4247H35.4542V50.4115L35.4525 50.3984L35.2542 50.4247ZM31.3815 55.7702L31.4814 55.9435L31.4821 55.9431L31.3815 55.7702ZM11.5542 55.7293L11.4543 55.9025L11.4545 55.9026L11.5542 55.7293ZM7.62016 50.4111H7.42015L7.42017 50.4131L7.62016 50.4111ZM7.62016 19.6747L7.77741 19.5511L7.42016 19.0966V19.6747H7.62016ZM10.8792 22.4497L10.7823 22.6247L10.7855 22.6264L10.8792 22.4497ZM21.5361 24.9929L21.5402 24.7928L21.5322 24.7929L21.5361 24.9929ZM32.077 22.4838L32.1708 22.6605L32.1745 22.6584L32.077 22.4838ZM35.2679 19.7565L35.4679 19.758L35.4721 19.1726L35.1106 19.633L35.2679 19.7565ZM24.775 10.8656L24.6838 11.0439L24.6933 11.0481L24.775 10.8656ZM25.9061 11.8062L26.0707 11.6926L26.0707 11.6926L25.9061 11.8062ZM26.3841 13.1974H26.5844L26.5838 13.1859L26.3841 13.1974ZM26.3841 15.686L26.5841 15.6957V15.686H26.3841ZM25.9211 17.0799L25.7553 16.9681L25.7553 16.9681L25.9211 17.0799ZM24.8023 18.0315L24.7184 17.8497L24.7105 17.8538L24.8023 18.0315ZM18.0727 18.0315L18.1646 17.8537L18.1573 17.8503L18.0727 18.0315ZM16.9535 17.0868L16.789 17.2007L16.789 17.2007L16.9535 17.0868ZM16.4636 15.7065H16.2636V15.7142L16.2642 15.7218L16.4636 15.7065ZM16.4636 13.0406L16.2656 13.0127L16.2636 13.0266V13.0406H16.4636ZM18.0455 10.8656L18.133 11.0454L18.1365 11.0437L18.0455 10.8656ZM20.6841 16.2792L20.707 16.0805L20.6956 16.0792H20.6841V16.2792ZM24.8227 15.5156L24.9151 15.693L24.922 15.6894L24.9287 15.6852L24.8227 15.5156ZM20.6773 16.2792L20.6584 16.4783L20.6678 16.4792H20.6773V16.2792ZM20.2141 16.0337L20.06 16.1611L20.06 16.1611L20.2141 16.0337ZM20.0602 15.5326L20.2593 15.5516L20.2593 15.5516L20.0602 15.5326ZM20.3057 15.0695L20.4331 15.2237L20.4331 15.2237L20.3057 15.0695ZM20.8068 14.9156L20.8301 14.7169L20.8257 14.7165L20.8068 14.9156ZM24.1341 14.3224L24.2247 14.501L24.2333 14.4961L24.1341 14.3224ZM24.1136 12.0383L24.2129 11.8642L24.2012 11.8585L24.1136 12.0383ZM18.7409 12.0383L18.821 12.2218L18.8285 12.2181L18.7409 12.0383ZM18.1695 12.4654L18.0164 12.3368L18.0164 12.3368L18.1695 12.4654ZM17.8477 13.102L17.6534 13.0549L17.6477 13.0781V13.102H17.8477ZM17.8477 15.6929H17.6477L17.6478 15.6963L17.8477 15.6929ZM18.775 16.8451L18.6758 17.0192L18.6858 17.0241L18.775 16.8451ZM24.1409 16.8451L24.2303 17.0244L24.2393 17.0193L24.1409 16.8451ZM25.0409 15.3793H25.2409V15.0184L24.9349 15.2096L25.0409 15.3793ZM31.3679 25.9133L31.4781 25.746L31.4679 25.7401L31.3679 25.9133ZM30.6861 25.9133L30.7731 26.0934L30.7797 26.0902L30.7861 26.0865L30.6861 25.9133ZM24.2634 27.7406L24.2426 27.5416L24.2394 27.542L24.2634 27.7406ZM23.8333 27.967L23.6832 27.8349L23.6832 27.8349L23.8333 27.967ZM23.6634 28.4224H23.8634L23.8634 28.421L23.6634 28.4224ZM23.8631 54.5068L23.7216 54.6482L23.7216 54.6482L23.8631 54.5068ZM24.4202 54.7065V54.9065H24.4305L24.4407 54.9055L24.4202 54.7065ZM31.2997 52.7429L31.3873 52.9227L31.3897 52.9215L31.2997 52.7429ZM31.6747 52.1361L31.8747 52.1367V52.1361H31.6747ZM31.6747 26.4929L31.4747 26.4899V26.4929H31.6747ZM31.5956 26.1638L31.4188 26.2574L31.4188 26.2574L31.5956 26.1638ZM25.0474 40.8315H24.8474V41.0613L25.075 41.0296L25.0474 40.8315ZM30.3315 39.2906L30.4148 39.4724L30.5315 39.419V39.2906H30.3315ZM25.0474 35.677L25.0203 35.4788L24.8474 35.5025V35.677H25.0474ZM30.3315 34.252H30.5315V33.9533L30.2553 34.0671L30.3315 34.252ZM30.3315 40.7974H30.5315V40.4975L30.2547 40.6128L30.3315 40.7974ZM25.0474 42.2224L25.021 42.0242L24.8474 42.0473V42.2224H25.0474ZM30.3315 45.1133L30.4141 45.2955L30.5315 45.2422V45.1133H30.3315ZM25.0474 46.6543H24.8474V46.8848L25.0757 46.8522L25.0474 46.6543ZM30.3315 27.5633H30.5315V27.264L30.255 27.3786L30.3315 27.5633ZM25.0474 28.9883L25.0207 28.7901L24.8474 28.8135V28.9883H25.0474ZM30.3315 32.7451L30.4145 32.9271L30.5315 32.8738V32.7451H30.3315ZM25.0474 34.2861H24.8474V34.5162L25.0754 34.4841L25.0474 34.2861ZM25.0474 48.0451L25.0209 47.8469L24.8474 47.8701V48.0451H25.0474ZM25.0474 53.2133H24.8474V53.4428L25.0748 53.4115L25.0474 53.2133ZM30.3315 46.6269H30.5315V46.328L30.2552 46.4421L30.3315 46.6269ZM30.3315 51.6861L30.4141 51.8682L30.5315 51.815V51.6861H30.3315ZM53.6856 6.05687C53.5475 5.92573 53.3706 5.84284 53.1814 5.82059L53.1347 6.21785C53.2381 6.23001 53.3347 6.2753 53.4102 6.34695L53.6856 6.05687ZM53.9487 6.55777C53.9184 6.36652 53.826 6.19058 53.6858 6.05707L53.41 6.34676C53.4866 6.41972 53.5371 6.51585 53.5536 6.62033L53.9487 6.55777ZM53.8533 7.11525C53.9455 6.94495 53.979 6.74902 53.9487 6.55778L53.5536 6.62033C53.5702 6.72483 53.5518 6.83189 53.5015 6.92495L53.8533 7.11525ZM41.3158 30.9768L53.8545 7.11313L53.5004 6.92707L40.9617 30.7907L41.3158 30.9768ZM40.9919 31.3187C41.1285 31.2364 41.2403 31.1186 41.3153 30.9777L40.9622 30.7897C40.9213 30.8667 40.8602 30.931 40.7855 30.976L40.9919 31.3187ZM40.5393 31.4451C40.6989 31.4447 40.8553 31.401 40.9919 31.3187L40.7855 30.976C40.7109 31.021 40.6254 31.0448 40.5383 31.0451L40.5393 31.4451ZM40.2107 31.3824C40.3157 31.4254 40.4283 31.4467 40.5417 31.4451L40.5358 31.0451C40.4764 31.046 40.4173 31.0348 40.3623 31.0123L40.2107 31.3824ZM39.749 30.9536C39.8451 31.149 40.01 31.3019 40.212 31.383L40.361 31.0117C40.2506 30.9674 40.1605 30.8839 40.108 30.7771L39.749 30.9536ZM39.6918 30.3248C39.6326 30.5343 39.653 30.7583 39.749 30.9536L40.108 30.7771C40.0555 30.6704 40.0444 30.548 40.0767 30.4336L39.6918 30.3248ZM43.2236 17.8067L39.6918 30.3249L40.0767 30.4335L43.6085 17.9153L43.2236 17.8067ZM40.2229 19.9365L43.5161 18.0342L43.316 17.6878L40.0228 19.5901L40.2229 19.9365ZM39.7218 20.0505C39.8961 20.063 40.0701 20.0236 40.2219 19.937L40.0238 19.5895C39.9409 19.6368 39.8458 19.6584 39.7506 19.6515L39.7218 20.0505ZM39.2431 19.8665C39.3809 19.9739 39.5475 20.0379 39.7218 20.0505L39.7506 19.6515C39.6553 19.6447 39.5643 19.6097 39.489 19.551L39.2431 19.8665ZM38.9466 19.4465C39.0016 19.613 39.1049 19.7593 39.2435 19.8668L39.4886 19.5507C39.4129 19.492 39.3565 19.412 39.3264 19.321L38.9466 19.4465ZM38.9348 18.932C38.8875 19.1009 38.8916 19.28 38.9466 19.4465L39.3264 19.321C39.2964 19.2301 39.2942 19.1322 39.32 19.04L38.9348 18.932ZM42.9306 5.02168L38.9352 18.9308L39.3196 19.0412L43.3151 5.13211L42.9306 5.02168ZM43.3362 4.5016C43.1388 4.616 42.9934 4.80246 42.9306 5.02185L43.3152 5.13194C43.3495 5.01209 43.4289 4.91021 43.5368 4.84769L43.3362 4.5016ZM50.3592 0.444637L43.3365 4.50146L43.5366 4.84783L50.5593 0.790999L50.3592 0.444637ZM50.8874 0.3267C50.7026 0.309604 50.5172 0.351241 50.3575 0.445642L50.561 0.789994C50.6483 0.738404 50.7496 0.715659 50.8505 0.724998L50.8874 0.3267ZM51.3865 0.540854C51.2468 0.418748 51.0722 0.343795 50.8874 0.3267L50.8505 0.724998C50.9515 0.734338 51.0469 0.775287 51.1233 0.842015L51.3865 0.540854ZM51.6655 1.00684C51.6238 0.826029 51.5262 0.662964 51.3865 0.540854L51.1233 0.842015C51.1996 0.90874 51.2529 0.997841 51.2757 1.09663L51.6655 1.00684ZM51.6185 1.54792C51.6907 1.377 51.7071 1.18766 51.6655 1.00685L51.2757 1.09663C51.2984 1.19542 51.2895 1.29887 51.25 1.39227L51.6185 1.54792ZM48.7558 8.57509L51.6195 1.54554L51.249 1.39464L48.3854 8.42418L48.7558 8.57509ZM52.6369 5.93303L48.471 8.32621L48.6702 8.67306L52.8361 6.27987L52.6369 5.93303ZM53.1814 5.82059C52.9923 5.79834 52.801 5.83789 52.6362 5.93341L52.8368 6.27948C52.9268 6.22731 53.0313 6.20569 53.1347 6.21785L53.1814 5.82059ZM43.1585 24.5291L45.3812 16.6814L44.9964 16.5724L42.7736 24.4201L43.1585 24.5291ZM51.2027 8.39964L42.7891 24.3815L43.143 24.5678L51.5567 8.58598L51.2027 8.39964ZM47.6274 10.8888L51.4796 8.66604L51.2797 8.31958L47.4275 10.5423L47.6274 10.8888ZM47.1044 11.0018C47.286 11.0192 47.4686 10.9798 47.6269 10.8891L47.428 10.542C47.3415 10.5916 47.2417 10.6131 47.1425 10.6036L47.1044 11.0018ZM46.6128 10.7921C46.751 10.9112 46.9228 10.9844 47.1044 11.0018L47.1425 10.6036C47.0432 10.5941 46.9494 10.5541 46.8739 10.489L46.6128 10.7921ZM46.3309 10.3278C46.3737 10.5083 46.4722 10.6707 46.6126 10.7919L46.8741 10.4892C46.7974 10.423 46.7435 10.3342 46.7202 10.2356L46.3309 10.3278ZM46.3745 9.78663C46.3034 9.95795 46.2882 10.1473 46.3309 10.3278L46.7202 10.2356C46.6968 10.137 46.7051 10.0335 46.744 9.93991L46.3745 9.78663ZM49.2719 2.72374L46.3742 9.78736L46.7443 9.93918L49.642 2.87555L49.2719 2.72374ZM44.4911 5.89783L49.557 2.97285L49.357 2.62644L44.2911 5.55143L44.4911 5.89783ZM41.0991 17.8008L44.5831 5.78031L44.199 5.66895L40.7149 17.6894L41.0991 17.8008ZM44.0864 15.6765L40.8069 17.5719L41.007 17.9182L44.2866 16.0228L44.0864 15.6765ZM44.5891 15.556C44.4125 15.545 44.2367 15.5874 44.0845 15.6776L44.2885 16.0217C44.3717 15.9724 44.4677 15.9492 44.5642 15.9553L44.5891 15.556ZM45.0746 15.7393C44.9348 15.6309 44.7656 15.567 44.5891 15.556L44.5642 15.9553C44.6607 15.9613 44.7531 15.9962 44.8295 16.0554L45.0746 15.7393ZM45.373 16.164C45.3183 15.9957 45.2144 15.8477 45.0746 15.7393L44.8295 16.0554C44.9058 16.1146 44.9626 16.1955 44.9925 16.2874L45.373 16.164ZM45.3808 16.6829C45.4303 16.513 45.4276 16.3322 45.3729 16.1639L44.9925 16.2874C45.0223 16.3794 45.0238 16.4781 44.9968 16.5709L45.3808 16.6829ZM10.5261 16.4952C10.2639 15.8142 10.1636 15.0816 10.233 14.3551L9.83486 14.317C9.7595 15.1052 9.86835 15.9001 10.1528 16.639L10.5261 16.4952ZM11.7439 18.2794C11.2052 17.787 10.7883 17.1763 10.5261 16.4952L10.1528 16.639C10.4373 17.3778 10.8896 18.0405 11.474 18.5746L11.7439 18.2794ZM12.0896 18.4252C11.9623 18.4252 11.8402 18.3749 11.7499 18.2851L11.4679 18.5688C11.6332 18.7331 11.8567 18.8252 12.0896 18.8252V18.4252ZM12.4293 18.2851C12.339 18.3749 12.2169 18.4252 12.0896 18.4252V18.8252C12.3226 18.8252 12.5461 18.7331 12.7113 18.5688L12.4293 18.2851ZM12.5349 18.1282C12.5105 18.1869 12.4746 18.2402 12.4295 18.285L12.7112 18.569C12.7938 18.487 12.8594 18.3895 12.9042 18.282L12.5349 18.1282ZM12.572 17.9429C12.572 18.0065 12.5594 18.0695 12.5349 18.1282L12.9042 18.282C12.9489 18.1746 12.972 18.0593 12.972 17.9429H12.572ZM12.5349 17.7576C12.5594 17.8163 12.572 17.8793 12.572 17.9429H12.972C12.972 17.8265 12.9489 17.7112 12.9042 17.6038L12.5349 17.7576ZM12.4295 17.6008C12.4746 17.6456 12.5105 17.6989 12.5349 17.7576L12.9042 17.6038C12.8594 17.4963 12.7938 17.3988 12.7112 17.3168L12.4295 17.6008ZM11.4318 16.1938C11.651 16.7387 11.9961 17.2239 12.4389 17.6096L12.7017 17.308C12.3065 16.9638 11.9985 16.5308 11.8029 16.0445L11.4318 16.1938ZM11.1779 14.4751C11.1256 15.06 11.2127 15.649 11.4318 16.1938L11.8029 16.0445C11.6073 15.5583 11.5297 15.0327 11.5763 14.5107L11.1779 14.4751ZM14.0038 10.9655C12.3949 11.9017 11.3612 13.1391 11.179 14.4657L11.5753 14.5201C11.734 13.3649 12.6502 12.2159 14.205 11.3112L14.0038 10.9655ZM28.7325 10.9643C26.684 9.80468 24.0128 9.227 21.3565 9.22528C18.7003 9.22356 16.0369 9.79774 14.0048 10.9649L14.204 11.3118C16.1605 10.188 18.7505 9.62359 21.3563 9.62528C23.9619 9.62697 26.5611 10.1947 28.5354 11.3124L28.7325 10.9643ZM31.6635 14.9293C31.6635 13.428 30.5891 12.0243 28.7331 10.9647L28.5348 11.312C30.3333 12.3388 31.2635 13.6351 31.2635 14.9293H31.6635ZM28.7803 18.8464C30.6034 17.8136 31.6635 16.4301 31.6635 14.9293H31.2635C31.2635 16.2239 30.3463 17.4995 28.5831 18.4984L28.7803 18.8464ZM18.3032 20.2943C22.0286 20.9623 26.0049 20.4145 28.7801 18.8466L28.5833 18.4983C25.9039 20.0121 22.0257 20.5554 18.3738 19.9006L18.3032 20.2943ZM18.1108 20.2978C18.174 20.284 18.2393 20.2828 18.3031 20.2943L18.3739 19.9006C18.2586 19.8798 18.1402 19.882 18.0256 19.9069L18.1108 20.2978ZM17.9346 20.3746C17.9877 20.3377 18.0476 20.3116 18.1108 20.2978L18.0256 19.9069C17.9111 19.9319 17.8026 19.9792 17.7063 20.0461L17.9346 20.3746ZM17.8011 20.513C17.8361 20.4585 17.8814 20.4115 17.9346 20.3746L17.7063 20.0461C17.61 20.113 17.5279 20.1982 17.4645 20.2969L17.8011 20.513ZM17.7308 20.692C17.7423 20.6283 17.7662 20.5674 17.8011 20.513L17.4645 20.2969C17.4012 20.3955 17.3579 20.5057 17.3371 20.6211L17.7308 20.692ZM17.7343 20.8842C17.7205 20.821 17.7193 20.7557 17.7308 20.692L17.3371 20.6211C17.3163 20.7365 17.3185 20.8548 17.3435 20.9694L17.7343 20.8842ZM17.8111 21.0605C17.7742 21.0073 17.7481 20.9474 17.7343 20.8842L17.3435 20.9694C17.3684 21.0839 17.4157 21.1925 17.4826 21.2887L17.8111 21.0605ZM17.9495 21.1939C17.8951 21.1589 17.848 21.1136 17.8111 21.0605L17.4826 21.2887C17.5495 21.385 17.6348 21.4672 17.7334 21.5305L17.9495 21.1939ZM18.1285 21.2642C18.0648 21.2528 18.004 21.2289 17.9495 21.1939L17.7334 21.5305C17.832 21.5938 17.9422 21.6371 18.0576 21.6579L18.1285 21.2642ZM21.461 21.5543C20.3436 21.5554 19.2282 21.4584 18.1278 21.2641L18.0583 21.658C19.1818 21.8563 20.3206 21.9555 21.4614 21.9543L21.461 21.5543ZM29.298 19.7293C26.8848 20.9931 24.1894 21.6212 21.4661 21.5543L21.4563 21.9542C24.2475 22.0227 27.0101 21.379 29.4836 20.0837L29.298 19.7293ZM32.6544 14.9838C32.6544 16.7826 31.4907 18.4724 29.2913 19.733L29.4902 20.08C31.7635 18.7771 33.0544 16.9759 33.0544 14.9838H32.6544ZM29.2433 10.1799C31.4705 11.4612 32.6544 13.1853 32.6544 14.9838H33.0544C33.0544 12.9915 31.7428 11.1564 29.4428 9.83319L29.2433 10.1799ZM13.55 10.1796C15.6974 8.93679 18.5344 8.31282 21.3861 8.31451C24.2377 8.3162 27.0821 8.94351 29.2437 10.1801L29.4423 9.83295C27.2062 8.55369 24.2893 7.91623 21.3863 7.91451C18.4835 7.91279 15.5728 8.54676 13.3497 9.83345L13.55 10.1796ZM10.2322 14.3628C10.4461 12.7742 11.6121 11.2727 13.5481 10.1808L13.3516 9.83235C11.3467 10.9632 10.0718 12.557 9.83574 14.3094L10.2322 14.3628ZM31.7144 9.59516C31.7785 9.6057 31.8398 9.62911 31.8947 9.66397L32.1093 9.32641C32.0089 9.2626 31.8967 9.21976 31.7793 9.20046L31.7144 9.59516ZM31.5216 9.60259C31.5847 9.58714 31.6503 9.58461 31.7144 9.59516L31.7793 9.20046C31.662 9.18116 31.5419 9.18578 31.4264 9.21408L31.5216 9.60259ZM31.3471 9.68511C31.3991 9.64612 31.4585 9.61805 31.5216 9.60259L31.4264 9.21408C31.3109 9.24238 31.2023 9.29375 31.1071 9.3651L31.3471 9.68511ZM31.219 9.82944C31.2516 9.77321 31.2951 9.72412 31.3471 9.68512L31.1071 9.3651C31.012 9.43644 30.9323 9.52628 30.8727 9.62927L31.219 9.82944ZM31.1579 10.0125C31.1657 9.94796 31.1865 9.88569 31.219 9.82944L30.8727 9.62927C30.8132 9.73225 30.7752 9.84621 30.7608 9.96425L31.1579 10.0125ZM31.1735 10.2048C31.1554 10.1424 31.1501 10.077 31.1579 10.0125L30.7608 9.96425C30.7465 10.0823 30.7562 10.202 30.7893 10.3163L31.1735 10.2048ZM31.2632 10.3756C31.2221 10.3254 31.1916 10.2672 31.1735 10.2048L30.7893 10.3162C30.8224 10.4305 30.8783 10.5368 30.9536 10.6289L31.2632 10.3756ZM31.4129 10.4975C31.3553 10.4674 31.3044 10.4259 31.2632 10.3756L30.9536 10.6289C31.0289 10.721 31.1221 10.7968 31.2274 10.8519L31.4129 10.4975ZM35.4542 15.9765C35.4256 13.9059 33.966 11.9711 31.4201 10.5015L31.2202 10.8479C33.7061 12.2829 35.0284 14.1117 35.0543 15.982L35.4542 15.9765ZM35.4542 16.102V15.9792H35.0542V16.102H35.4542ZM31.4815 21.5047C33.9774 20.0638 35.4542 18.1557 35.4542 16.102H35.0542C35.0542 17.9483 33.722 19.7493 31.2815 21.1583L31.4815 21.5047ZM11.4478 21.464C14.2429 23.0706 17.874 23.8718 21.4871 23.8787C25.1001 23.8856 28.7164 23.0982 31.4814 21.5048L31.2817 21.1583C28.5921 22.7081 25.0493 23.4855 21.4879 23.4787C17.9265 23.4719 14.3679 22.6811 11.6471 21.1172L11.4478 21.464ZM7.40652 15.9247C7.40652 18.0246 8.88144 19.9808 11.4473 21.4638L11.6475 21.1175C9.14068 19.6686 7.80652 17.8203 7.80652 15.9247H7.40652ZM11.3864 10.4536C8.8399 11.9166 7.40652 13.8253 7.40652 15.9247H7.80652C7.80652 14.0287 9.10042 12.2283 11.5857 10.8004L11.3864 10.4536ZM11.5883 10.1662C11.5587 10.2869 11.4836 10.3915 11.3788 10.4582L11.5934 10.7958C11.7853 10.6737 11.9227 10.4823 11.9768 10.2614L11.5883 10.1662ZM11.5374 9.81047C11.5996 9.91806 11.6178 10.0455 11.5883 10.1662L11.9768 10.2614C12.0309 10.0405 11.9976 9.8072 11.8837 9.61029L11.5374 9.81047ZM11.2545 9.58885C11.3739 9.62347 11.4752 9.70287 11.5374 9.81047L11.8837 9.61029C11.7699 9.41338 11.5844 9.26806 11.366 9.20469L11.2545 9.58885ZM10.897 9.62467C11.0071 9.56706 11.1352 9.55423 11.2545 9.58885L11.366 9.20469C11.1475 9.14132 10.9131 9.16482 10.7115 9.27024L10.897 9.62467ZM6.44288 15.9247C6.44288 13.54 8.00155 11.2976 10.9043 9.62063L10.7042 9.27428C7.72968 10.9927 6.04288 13.3458 6.04288 15.9247H6.44288ZM6.44288 15.9656V15.9247H6.04288V15.9656H6.44288ZM6.44288 50.4315V15.9656H6.04288V50.4315H6.44288ZM6.44108 50.4797C6.44012 50.4726 6.44012 50.4654 6.44108 50.4584L6.04469 50.4047C6.03891 50.4474 6.03891 50.4907 6.04469 50.5334L6.44108 50.4797ZM10.9586 56.7491C8.06902 55.0854 6.49527 52.8618 6.44283 50.5021L6.04293 50.511C6.09958 53.0603 7.79857 55.3913 10.759 57.0958L10.9586 56.7491ZM21.5116 59.2725C17.8341 59.3455 14.199 58.4757 10.9528 56.746L10.7647 57.099C14.0712 58.8609 17.7737 59.7468 21.5196 59.6724L21.5116 59.2725ZM31.9559 56.7867C28.7461 58.492 25.1535 59.3477 21.5197 59.2725L21.5115 59.6724C25.2135 59.749 28.8735 58.8772 32.1435 57.14L31.9559 56.7867ZM36.4042 50.4929C36.4042 52.871 34.8522 55.1133 31.9496 56.7902L32.1497 57.1365C35.1245 55.418 36.8042 53.0648 36.8042 50.4929H36.4042ZM36.4068 50.4637C36.4067 50.4627 36.4067 50.4617 36.4068 50.4608L36.8016 50.5251C36.8084 50.4835 36.8084 50.441 36.8016 50.3994L36.4068 50.4637ZM36.4042 16.1156V50.4315H36.8042V16.1156H36.4042ZM36.4042 16.0406V16.1156H36.8042V16.0406H36.4042ZM31.9015 9.6681C34.8466 11.3799 36.4239 13.6357 36.4043 16.039L36.8042 16.0423C36.8255 13.441 35.1164 11.0741 32.1025 9.32228L31.9015 9.6681ZM35.4542 50.3565V21.6247H35.0542V50.3565H35.4542ZM35.4525 50.3984C35.4518 50.3932 35.4518 50.388 35.4525 50.3829L35.056 50.3302C35.0507 50.3703 35.0507 50.4109 35.056 50.451L35.4525 50.3984ZM31.4821 55.9431C34.0226 54.4657 35.4542 52.5159 35.4542 50.4247H35.0542C35.0542 52.3153 33.7586 54.1565 31.281 55.5973L31.4821 55.9431ZM11.4545 55.9026C14.2462 57.5092 17.8757 58.3105 21.488 58.3173C25.1001 58.3242 28.7164 57.5368 31.4814 55.9435L31.2817 55.5969C28.5921 57.1467 25.0493 57.9241 21.4887 57.9173C17.9282 57.9106 14.3714 57.1198 11.654 55.5559L11.4545 55.9026ZM7.42017 50.4131C7.44167 52.4911 8.90852 54.433 11.4543 55.9025L11.6542 55.5561C9.16815 54.121 7.83956 52.2856 7.82015 50.409L7.42017 50.4131ZM7.42016 50.3565V50.4111H7.82016V50.3565H7.42016ZM7.42016 19.6747V50.3565H7.82016V19.6747H7.42016ZM10.9762 22.2748C9.73899 21.5893 8.6514 20.6632 7.77741 19.5511L7.46291 19.7983C8.36986 20.9523 9.49847 21.9133 10.7823 22.6247L10.9762 22.2748ZM21.5322 24.7929C17.8554 24.8648 14.2211 23.9975 10.973 22.2731L10.7855 22.6264C14.0937 24.3827 17.7952 25.266 21.54 25.1929L21.5322 24.7929ZM31.9832 22.3072C28.7712 24.013 25.1763 24.8687 21.5402 24.7929L21.5319 25.1929C25.2361 25.27 28.8986 24.3982 32.1708 22.6605L31.9832 22.3072ZM35.1106 19.633C34.2542 20.7235 33.19 21.6331 31.9794 22.3092L32.1745 22.6584C33.4312 21.9565 34.5361 21.0122 35.4252 19.8801L35.1106 19.633ZM35.4542 21.6262L35.4679 19.758L35.0679 19.7551L35.0543 21.6233L35.4542 21.6262ZM24.8661 10.6875C23.7962 10.1405 22.6118 9.85525 21.4102 9.85525V10.2553C22.5485 10.2553 23.6705 10.5254 24.6839 11.0437L24.8661 10.6875ZM26.0707 11.6926C25.7661 11.2512 25.3462 10.902 24.8567 10.683L24.6933 11.0481C25.116 11.2372 25.4785 11.5387 25.7415 11.9197L26.0707 11.6926ZM26.5838 13.1859C26.5527 12.6505 26.3753 12.1339 26.0707 11.6926L25.7415 11.9197C26.0044 12.3008 26.1576 12.7468 26.1844 13.209L26.5838 13.1859ZM26.5841 15.686V13.1974H26.1841V15.686H26.5841ZM26.0869 17.1918C26.3862 16.7479 26.5581 16.2304 26.5839 15.6957L26.1843 15.6764C26.1621 16.1381 26.0137 16.5849 25.7553 16.9681L26.0869 17.1918ZM24.886 18.2131C25.3722 17.9889 25.7875 17.6356 26.0869 17.1918L25.7553 16.9681C25.4968 17.3513 25.1382 17.6563 24.7185 17.8499L24.886 18.2131ZM21.4375 19.0495C22.6403 19.0495 23.8255 18.7613 24.8941 18.2092L24.7105 17.8538C23.6987 18.3766 22.5764 18.6495 21.4375 18.6495V19.0495ZM17.9809 18.2092C19.0495 18.7613 20.2347 19.0495 21.4375 19.0495V18.6495C20.2986 18.6495 19.1763 18.3766 18.1645 17.8538L17.9809 18.2092ZM16.789 17.2007C17.0919 17.6384 17.5058 17.9876 17.9882 18.2127L18.1573 17.8503C17.7392 17.6552 17.3805 17.3524 17.1179 16.973L16.789 17.2007ZM16.2642 15.7218C16.3049 16.2526 16.4861 16.7629 16.789 17.2007L17.1179 16.973C16.8553 16.5936 16.6983 16.1512 16.663 15.6912L16.2642 15.7218ZM16.2636 13.0406V15.7065H16.6636V13.0406H16.2636ZM16.8216 11.6382C16.5265 12.0439 16.3356 12.5159 16.2656 13.0127L16.6617 13.0685C16.7225 12.6366 16.8885 12.2262 17.1451 11.8735L16.8216 11.6382ZM17.9579 10.6858C17.5069 10.9054 17.1167 11.2325 16.8216 11.6382L17.1451 11.8735C17.4016 11.5207 17.7409 11.2364 18.133 11.0454L17.9579 10.6858ZM21.4102 9.85525C20.2087 9.85525 19.0242 10.1405 17.9544 10.6875L18.1365 11.0437C19.15 10.5254 20.272 10.2553 21.4102 10.2553V9.85525ZM20.6611 16.4779C22.1257 16.6471 23.6073 16.3737 24.9151 15.693L24.7304 15.3382C23.4935 15.982 22.0922 16.2405 20.707 16.0805L20.6611 16.4779ZM20.6773 16.4792H20.6841V16.0792H20.6773V16.4792ZM20.06 16.1611C20.2095 16.3421 20.4247 16.4561 20.6584 16.4783L20.6962 16.0801C20.5682 16.0679 20.4502 16.0054 20.3683 15.9063L20.06 16.1611ZM19.8611 15.5137C19.8389 15.7474 19.9104 15.9802 20.06 16.1611L20.3683 15.9063C20.2864 15.8072 20.2472 15.6796 20.2593 15.5516L19.8611 15.5137ZM20.1783 14.9154C19.9974 15.0649 19.8833 15.2801 19.8611 15.5137L20.2593 15.5516C20.2715 15.4235 20.334 15.3056 20.4331 15.2237L20.1783 14.9154ZM20.8257 14.7165C20.5921 14.6943 20.3592 14.7659 20.1783 14.9154L20.4331 15.2237C20.5323 15.1417 20.6599 15.1025 20.7879 15.1147L20.8257 14.7165ZM24.0436 14.144C23.0521 14.647 21.9343 14.8463 20.8301 14.7169L20.7836 15.1142C21.9659 15.2527 23.1629 15.0393 24.2246 14.5008L24.0436 14.144ZM24.8341 13.1906C24.8341 13.4749 24.5894 13.8319 24.0349 14.1488L24.2333 14.4961C24.8243 14.1584 25.2341 13.6972 25.2341 13.1906H24.8341ZM24.0146 12.2121C24.5825 12.5357 24.8341 12.9063 24.8341 13.1906H25.2341C25.2341 12.684 24.8175 12.2092 24.2126 11.8646L24.0146 12.2121ZM21.4273 11.6191C22.3278 11.6191 23.2165 11.8239 24.0261 12.2181L24.2012 11.8585C23.337 11.4377 22.3885 11.2191 21.4273 11.2191V11.6191ZM18.8285 12.2181C19.6381 11.8239 20.5268 11.6191 21.4273 11.6191V11.2191C20.4661 11.2191 19.5175 11.4377 18.6534 11.8585L18.8285 12.2181ZM18.3227 12.594C18.4578 12.4331 18.6283 12.3056 18.8209 12.2216L18.6609 11.855C18.4118 11.9637 18.1912 12.1286 18.0164 12.3368L18.3227 12.594ZM18.0421 13.149C18.0916 12.9448 18.1876 12.7549 18.3227 12.594L18.0164 12.3368C17.8416 12.5449 17.7173 12.7907 17.6534 13.0549L18.0421 13.149ZM18.0477 15.6929V13.102H17.6477V15.6929H18.0477ZM18.874 16.6714C18.3072 16.3484 18.0527 15.9767 18.0477 15.6894L17.6478 15.6963C17.6564 16.2 18.0701 16.6737 18.676 17.0189L18.874 16.6714ZM21.458 17.2768C20.5578 17.2768 19.6699 17.0678 18.8642 16.6661L18.6858 17.0241C19.5468 17.4534 20.4958 17.6768 21.458 17.6768V17.2768ZM24.0517 16.6661C23.246 17.0678 22.3582 17.2768 21.458 17.2768V17.6768C22.4201 17.6768 23.3691 17.4534 24.2301 17.0241L24.0517 16.6661ZM24.8409 15.6929C24.8409 15.9872 24.5983 16.3571 24.0426 16.671L24.2393 17.0193C24.8426 16.6786 25.2409 16.203 25.2409 15.6929H24.8409ZM24.8409 15.3793V15.6929H25.2409V15.3793H24.8409ZM24.9287 15.6852L25.1469 15.5489L24.9349 15.2096L24.7167 15.346L24.9287 15.6852ZM31.027 26.022C31.1116 26.022 31.1947 26.0442 31.2679 26.0865L31.4679 25.7401C31.3338 25.6627 31.1818 25.622 31.027 25.622V26.022ZM30.7861 26.0865C30.8593 26.0442 30.9424 26.022 31.027 26.022V25.622C30.8722 25.622 30.7201 25.6627 30.5861 25.7401L30.7861 26.0865ZM24.2841 27.9395C26.5376 27.7041 28.7332 27.0795 30.7731 26.0934L30.599 25.7332C28.6008 26.6992 26.4501 27.3111 24.2426 27.5417L24.2841 27.9395ZM23.9834 28.0992C24.0617 28.0103 24.1698 27.9533 24.2873 27.9391L24.2394 27.542C24.0243 27.568 23.8263 27.6723 23.6832 27.8349L23.9834 28.0992ZM23.8634 28.421C23.8625 28.3026 23.9052 28.188 23.9834 28.0992L23.6832 27.8349C23.54 27.9976 23.4618 28.2072 23.4634 28.4238L23.8634 28.421ZM23.8634 54.0247V28.4224H23.4634V54.0247H23.8634ZM24.0045 54.3654C23.9141 54.275 23.8634 54.1525 23.8634 54.0247H23.4634C23.4634 54.2586 23.5563 54.4829 23.7216 54.6482L24.0045 54.3654ZM24.3452 54.5065C24.2174 54.5065 24.0948 54.4558 24.0045 54.3654L23.7216 54.6482C23.887 54.8136 24.1113 54.9065 24.3452 54.9065V54.5065ZM24.4202 54.5065H24.3452V54.9065H24.4202V54.5065ZM31.2122 52.5631C29.0726 53.605 26.7668 54.2631 24.3996 54.5076L24.4407 54.9055C26.8544 54.6562 29.2057 53.9851 31.3873 52.9227L31.2122 52.5631ZM31.4028 52.3873C31.356 52.463 31.2892 52.5242 31.2097 52.5643L31.3897 52.9215C31.5352 52.8482 31.6575 52.7361 31.743 52.5975L31.4028 52.3873ZM31.4747 52.1354C31.4745 52.2244 31.4496 52.3116 31.4028 52.3873L31.743 52.5975C31.8287 52.459 31.8742 52.2995 31.8747 52.1367L31.4747 52.1354ZM31.4747 26.4929V52.1361H31.8747V26.4929H31.4747ZM31.4188 26.2574C31.4567 26.3289 31.4759 26.4089 31.4747 26.4899L31.8747 26.4958C31.8769 26.3476 31.8417 26.2012 31.7723 26.0702L31.4188 26.2574ZM31.2579 26.0804C31.3256 26.1249 31.3809 26.1858 31.4188 26.2574L31.7723 26.0702C31.703 25.9392 31.6017 25.8278 31.4779 25.7463L31.2579 26.0804ZM25.075 41.0296C26.9211 40.7727 28.72 40.2482 30.4148 39.4724L30.2483 39.1087C28.5888 39.8683 26.8275 40.3819 25.0199 40.6334L25.075 41.0296ZM24.8474 35.677V40.8315H25.2474V35.677H24.8474ZM30.2553 34.0671C28.5775 34.7584 26.8183 35.2328 25.0203 35.4788L25.0746 35.8751C26.9062 35.6245 28.6984 35.1412 30.4077 34.4369L30.2553 34.0671ZM30.5315 39.2906V34.252H30.1315V39.2906H30.5315ZM30.2547 40.6128C28.5794 41.3101 26.8198 41.7846 25.021 42.0242L25.0739 42.4207C26.9073 42.1765 28.7008 41.6928 30.4084 40.9821L30.2547 40.6128ZM30.5315 45.1133V40.7974H30.1315V45.1133H30.5315ZM25.0757 46.8522C26.92 46.589 28.7174 46.0648 30.4141 45.2955L30.2489 44.9312C28.5868 45.6848 26.8259 46.1984 25.0192 46.4563L25.0757 46.8522ZM24.8474 42.2224V46.6543H25.2474V42.2224H24.8474ZM30.255 27.3786C28.5784 28.0729 26.8191 28.5474 25.0207 28.7901L25.0742 29.1865C26.9068 28.9392 28.6996 28.4557 30.4081 27.7481L30.255 27.3786ZM30.5315 32.7451V27.5633H30.1315V32.7451H30.5315ZM25.0754 34.4841C26.9206 34.224 28.7187 33.6997 30.4145 32.9271L30.2486 32.5631C28.5878 33.3198 26.8267 33.8333 25.0195 34.088L25.0754 34.4841ZM24.8474 28.9883V34.2861H25.2474V28.9883H24.8474ZM24.8474 48.0451V53.2133H25.2474V48.0451H24.8474ZM30.2552 46.4421C28.5784 47.1341 26.819 47.6063 25.0209 47.8469L25.074 48.2434C26.9062 47.9982 28.6991 47.517 30.4078 46.8118L30.2552 46.4421ZM30.5315 51.6861V46.6269H30.1315V51.6861H30.5315ZM25.0748 53.4115C26.9196 53.1568 28.7179 52.637 30.4141 51.8682L30.249 51.5039C28.5879 52.2568 26.8267 52.7658 25.0201 53.0152L25.0748 53.4115Z" fill="#B46527"/>
</svg>
