<svg width="21" height="21" viewBox="0 0 21 21" fill="none" xmlns="http://www.w3.org/2000/svg">
<path fill-rule="evenodd" clip-rule="evenodd" d="M11.8432 4.58866L13.2682 6.00167L6.94998 12.4616C6.63295 12.7874 6.63295 13.3118 6.94998 13.6376C7.25083 13.9468 7.7534 13.9454 8.05103 13.6359L15.0024 6.52565C16.0172 5.48288 16.0172 3.80821 15.0024 2.76544C14.0342 1.77054 12.321 1.79267 11.3721 2.76734L3.78478 10.5226C2.07178 12.282 2.07178 15.1073 3.78478 16.8668C5.44819 18.5753 8.30568 18.5475 9.94311 16.8652L18.7921 7.81605L20.2172 9.22893L11.3699 18.2764C8.95596 20.7564 4.81032 20.7968 2.35657 18.2765C-0.118817 15.734 -0.118817 11.6554 2.35828 9.1111L9.94557 1.35587C11.669 -0.414314 14.6703 -0.453085 16.4309 1.35601C18.2077 3.18177 18.2077 6.10932 16.4293 7.93672L9.4821 15.0427C8.40743 16.1602 6.60958 16.1653 5.52138 15.0469C4.44248 13.9381 4.44248 12.1611 5.52318 11.0504L11.8432 4.58866Z" fill="#5A5A79"/>
</svg>
