<svg width="21" height="21" viewBox="0 0 21 21" fill="none" xmlns="http://www.w3.org/2000/svg">
<path fill-rule="evenodd" clip-rule="evenodd" d="M9.9745 4.69794C10.5605 5.35195 10.3747 6.09287 9.85657 6.79589C9.73374 6.96256 9.59215 7.12679 9.42114 7.30776C9.33906 7.39462 9.27506 7.45995 9.14118 7.59488L8.37441 8.36736C8.27396 8.46849 8.95978 9.8484 10.2908 11.1899C11.621 12.5306 12.9914 13.2217 13.0924 13.12L13.8586 12.348C14.2806 11.9228 14.504 11.7176 14.8111 11.5147C15.4495 11.093 16.1457 10.9784 16.733 11.5072C18.6504 12.8881 19.7354 13.7356 20.267 14.2917C21.3038 15.3764 21.1679 17.0461 20.2729 17.9986C19.9625 18.3289 19.569 18.7254 19.1042 19.1766C16.2926 22.009 10.359 20.2853 5.81145 15.7019C1.26291 11.1176 -0.448123 5.14244 2.35753 2.31594C2.86122 1.8008 3.0273 1.63367 3.51785 1.14698C4.43118 0.240845 6.16595 0.0989631 7.22051 1.14787C7.77521 1.69961 8.65955 2.84528 9.9745 4.69794ZM15.2722 13.7718L14.5058 14.5439C13.2031 15.8564 10.9845 14.7377 8.87703 12.6135C6.76808 10.488 5.65827 8.25497 6.96142 6.94295L7.72744 6.17123C7.85002 6.04768 7.90609 5.99045 7.97339 5.91923C8.06509 5.82219 8.14044 5.73697 8.20077 5.66155C7.0354 4.02703 6.2432 3.00569 5.81614 2.58091C5.59558 2.36153 5.10172 2.40193 4.92042 2.5818C4.43686 3.06155 4.27792 3.2215 3.77626 3.73452C1.97194 5.55227 3.35321 10.3758 7.22519 14.2783C11.096 18.1796 15.8858 19.571 17.7038 17.7397C18.1614 17.2953 18.5342 16.9197 18.8212 16.6142C19.0286 16.3935 19.0657 15.9381 18.8271 15.6885C18.4298 15.2728 17.457 14.5092 15.7774 13.2946C15.6549 13.3939 15.5044 13.5378 15.2722 13.7718ZM12 5.4487H16.5858L15.2929 6.7505L16.7071 8.17445L20.4142 4.44181L16.7071 0.709156L15.2929 2.13311L16.5858 3.43492H12V5.4487Z" fill="currentColor"/>
</svg>
