<svg width="16" height="16" viewBox="0 0 16 16" fill="none" xmlns="http://www.w3.org/2000/svg">
<path d="M2.16638 1.10571C1.87348 0.81282 1.39861 0.81282 1.10572 1.10571C0.812824 1.39861 0.812824 1.87348 1.10572 2.16637L6.93935 8.00001L1.10572 13.8336C0.812825 14.1265 0.812825 14.6014 1.10572 14.8943C1.39861 15.1872 1.87348 15.1872 2.16638 14.8943L8.00001 9.06067L13.8336 14.8942C14.1264 15.1871 14.6013 15.1871 14.8942 14.8942C15.1871 14.6013 15.1871 14.1264 14.8942 13.8335L9.06067 8.00001L14.8943 2.16637C15.1872 1.87348 15.1872 1.39861 14.8943 1.10571C14.6014 0.81282 14.1265 0.81282 13.8336 1.10571L8.00001 6.93935L2.16638 1.10571Z" fill="#5A5A79"/>
</svg>
