<svg width="20" height="21" viewBox="0 0 20 21" fill="none" xmlns="http://www.w3.org/2000/svg">
<path fill-rule="evenodd" clip-rule="evenodd" d="M16 2.0689C16 3.18108 16.8954 4.08268 18 4.08268C19.1046 4.08268 20 3.18108 20 2.0689C20 0.956715 19.1046 0.0551147 18 0.0551147C16.8954 0.0551147 16 0.956715 16 2.0689ZM18 12.1378C16.8954 12.1378 16 11.2362 16 10.124C16 9.01184 16.8954 8.11024 18 8.11024C19.1046 8.11024 20 9.01184 20 10.124C20 11.2362 19.1046 12.1378 18 12.1378ZM18 20.1929C16.8954 20.1929 16 19.2913 16 18.1791C16 17.067 16.8954 16.1654 18 16.1654C19.1046 16.1654 20 17.067 20 18.1791C20 19.2913 19.1046 20.1929 18 20.1929ZM10 20.1929C8.89543 20.1929 8 19.2913 8 18.1791C8 17.067 8.89543 16.1654 10 16.1654C11.1046 16.1654 12 17.067 12 18.1791C12 19.2913 11.1046 20.1929 10 20.1929ZM8 10.124C8 11.2362 8.89543 12.1378 10 12.1378C11.1046 12.1378 12 11.2362 12 10.124C12 9.01184 11.1046 8.11024 10 8.11024C8.89543 8.11024 8 9.01184 8 10.124ZM10 4.08268C8.89543 4.08268 8 3.18108 8 2.0689C8 0.956715 8.89543 0.0551147 10 0.0551147C11.1046 0.0551147 12 0.956715 12 2.0689C12 3.18108 11.1046 4.08268 10 4.08268ZM0 18.1791C0 19.2913 0.89543 20.1929 2 20.1929C3.10457 20.1929 4 19.2913 4 18.1791C4 17.067 3.10457 16.1654 2 16.1654C0.89543 16.1654 0 17.067 0 18.1791ZM2 12.1378C0.89543 12.1378 0 11.2362 0 10.124C0 9.01184 0.89543 8.11024 2 8.11024C3.10457 8.11024 4 9.01184 4 10.124C4 11.2362 3.10457 12.1378 2 12.1378ZM0 2.0689C0 3.18108 0.89543 4.08268 2 4.08268C3.10457 4.08268 4 3.18108 4 2.0689C4 0.956715 3.10457 0.0551147 2 0.0551147C0.89543 0.0551147 0 0.956715 0 2.0689Z" fill="currentColor"/>
</svg>
