<svg width="40" height="41" viewBox="0 0 40 41" fill="none" xmlns="http://www.w3.org/2000/svg">
<path d="M24.5 31.624H20.5C14.4249 31.624 9.5 26.6992 9.5 20.624V20.124C9.5 14.325 14.2905 9.62402 20.0895 9.62402V9.62402C25.7905 9.62402 30.5 14.2456 30.5 19.9466V19.9466C30.5 23.0822 27.9581 25.624 24.8226 25.624H24.5M24.5 25.624V21.124C24.5 18.6387 22.4853 16.624 20 16.624V16.624C17.5147 16.624 15.5 18.6387 15.5 21.124V21.124C15.5 23.6093 17.5147 25.624 20 25.624H24.5ZM24.5 25.624V20.624" stroke="#5A5A79"/>
</svg>
