<svg width="13" height="17" viewBox="0 0 13 17" fill="none" xmlns="http://www.w3.org/2000/svg">
<path fill-rule="evenodd" clip-rule="evenodd" d="M6.50001 16.3737C6.33103 16.3737 6.16627 16.3209 6.02876 16.2227C5.78178 16.048 -0.0234881 11.8564 7.15134e-05 6.61989C7.15134e-05 3.04005 2.91612 0.124023 6.50001 0.124023C10.0839 0.124023 12.9999 3.04005 12.9999 6.62395C13.0235 11.8564 7.21824 16.048 6.97126 16.2227C6.83375 16.3209 6.66899 16.3737 6.50001 16.3737ZM11.3749 6.62801C11.3749 3.93542 9.18855 1.74901 6.50001 1.74901C3.81147 1.74901 1.62507 3.93542 1.62507 6.62395C1.60801 10.2322 5.19108 13.4708 6.50001 14.5336C7.80973 13.4716 11.392 10.2338 11.3749 6.62801ZM9.74995 6.62399C9.74995 8.41634 8.29234 9.87395 6.49998 9.87395C4.70762 9.87395 3.25001 8.41634 3.25001 6.62399C3.25001 4.83163 4.70762 3.37402 6.49998 3.37402C8.29234 3.37402 9.74995 4.83163 9.74995 6.62399ZM8.12495 6.62399C8.12495 5.72781 7.39616 4.99901 6.49998 4.99901C5.6038 4.99901 4.87498 5.72781 4.87498 6.62399C4.87498 7.52016 5.6038 8.24897 6.49998 8.24897C7.39616 8.24897 8.12495 7.52016 8.12495 6.62399Z" fill="white"/>
</svg>
