<svg width="40" height="41" viewBox="0 0 40 41" fill="none" xmlns="http://www.w3.org/2000/svg">
<path d="M0 3.12402C0 1.46717 1.34315 0.124023 3 0.124023H37C38.6569 0.124023 40 1.46717 40 3.12402V37.124C40 38.7809 38.6569 40.124 37 40.124H3C1.34315 40.124 0 38.7809 0 37.124V3.12402Z" fill="#EE8208"/>
<path d="M20.0002 14.8929C20.8841 14.8929 21.6031 15.6118 21.6031 16.4957C21.6031 17.3788 20.8839 18.0978 20.0002 18.0978C19.1169 18.0978 18.3977 17.3788 18.3977 16.4957C18.3976 15.6116 19.1171 14.8929 20.0002 14.8929ZM20.0002 20.3655C22.1353 20.3655 23.8715 18.6298 23.8715 16.4957C23.8715 14.3605 22.1354 12.624 20.0002 12.624C17.8654 12.624 16.1289 14.3607 16.1289 16.4957C16.1289 18.6298 17.8654 20.3655 20.0002 20.3655ZM21.5664 23.5232C22.3628 23.3419 23.1228 23.0272 23.8143 22.5925C24.0688 22.4323 24.2494 22.1776 24.3161 21.8843C24.3829 21.5911 24.3304 21.2833 24.1702 21.0287C24.091 20.9025 23.9877 20.7932 23.8662 20.707C23.7447 20.6208 23.6074 20.5594 23.4622 20.5263C23.3169 20.4931 23.1666 20.489 23.0197 20.514C22.8728 20.5391 22.7324 20.5928 22.6063 20.6722C21.0203 21.6693 18.979 21.6686 17.3943 20.6722C17.2683 20.5928 17.1278 20.539 16.981 20.514C16.8341 20.4889 16.6838 20.4931 16.5385 20.5262C16.3933 20.5593 16.256 20.6207 16.1345 20.707C16.013 20.7932 15.9098 20.9025 15.8306 21.0287C15.6704 21.2832 15.6178 21.5909 15.6845 21.8842C15.7511 22.1775 15.9315 22.4322 16.186 22.5925C16.8774 23.027 17.6373 23.3417 18.4335 23.5232L16.2694 25.6878C16.0567 25.9005 15.9372 26.189 15.9373 26.4898C15.9373 26.7907 16.0569 27.0791 16.2696 27.2918C16.4824 27.5045 16.7709 27.6239 17.0717 27.6239C17.3726 27.6238 17.661 27.5043 17.8737 27.2915L19.9999 25.165L22.1273 27.2917C22.2325 27.3971 22.3574 27.4806 22.4949 27.5377C22.6324 27.5947 22.7799 27.624 22.9287 27.624C23.0776 27.624 23.225 27.5947 23.3625 27.5377C23.5 27.4806 23.625 27.3971 23.7301 27.2917C23.8356 27.1865 23.9194 27.0616 23.9765 26.924C24.0336 26.7864 24.063 26.6389 24.063 26.4899C24.063 26.3409 24.0336 26.1934 23.9765 26.0559C23.9194 25.9183 23.8356 25.7933 23.7301 25.6881L21.5664 23.5232Z" fill="white"/>
</svg>
