<svg width="14" height="15" viewBox="0 0 14 15" fill="none" xmlns="http://www.w3.org/2000/svg">
<path d="M2.75333 1.67958C2.8 2.3718 2.91667 3.04847 3.10333 3.69402L2.17 4.62736C1.85111 3.69402 1.64889 2.70625 1.57889 1.67958H2.75333ZM10.4222 11.0285C11.0833 11.2151 11.76 11.3318 12.4444 11.3785V12.5374C11.4178 12.4674 10.43 12.2651 9.48889 11.954L10.4222 11.0285ZM3.5 0.124023H0.777778C0.35 0.124023 0 0.474023 0 0.901801C0 8.20514 5.91889 14.124 13.2222 14.124C13.65 14.124 14 13.774 14 13.3462V10.6318C14 10.204 13.65 9.85402 13.2222 9.85402C12.2578 9.85402 11.3167 9.69847 10.4456 9.41069C10.3683 9.38269 10.2865 9.36949 10.2044 9.3718C10.0022 9.3718 9.80778 9.44958 9.65222 9.59736L7.94111 11.3085C5.73644 10.181 3.94303 8.38758 2.81556 6.18291L4.52667 4.4718C4.74444 4.25402 4.80667 3.95069 4.72111 3.67847C4.42606 2.78251 4.27639 1.84509 4.27778 0.901801C4.27778 0.474023 3.92778 0.124023 3.5 0.124023Z" fill="white"/>
</svg>
