<svg width="40" height="41" viewBox="0 0 40 41" fill="none" xmlns="http://www.w3.org/2000/svg">
<path d="M28.4777 29.5315L29.6788 28.8108C30.8967 28.08 30.9861 26.3481 29.8498 25.4958L28.2638 24.3064C27.3453 23.6175 26.0366 23.8416 25.3997 24.797L24.2556 26.5132C23.9666 26.9466 23.3933 27.0856 22.9379 26.8326L22.3752 26.5201C19.1104 24.7063 16.4187 22.0146 14.6049 18.7498L14.2924 18.1872C14.0394 17.7318 14.1784 17.1584 14.6118 16.8695L16.328 15.7253C17.2834 15.0884 17.5075 13.7798 16.8186 12.8612L15.6292 11.2753C14.7769 10.139 13.045 10.2283 12.3142 11.4463L11.5935 12.6474C10.381 14.6683 10.4638 17.2119 11.8053 19.1496L13.896 22.1694C15.2647 24.1464 16.9786 25.8603 18.9556 27.229L21.9754 29.3197C23.9132 30.6612 26.4568 30.744 28.4777 29.5315Z" stroke="#5A5A79"/>
</svg>
