<svg width="65" height="66" viewBox="0 0 65 66" fill="none" xmlns="http://www.w3.org/2000/svg">
<path d="M24.6237 11.824C25.3971 11.824 26.0424 12.0934 26.5598 12.632C27.0824 13.1654 27.3438 13.8294 27.3438 14.624C27.3438 15.4187 27.0824 16.0854 26.5598 16.624C26.0424 17.1574 25.3971 17.424 24.6237 17.424H22.3438V11.824H24.6237ZM24.6237 16.04C25.0131 16.04 25.3304 15.912 25.5758 15.656C25.8211 15.3947 25.9437 15.0507 25.9437 14.624C25.9437 14.1974 25.8211 13.856 25.5758 13.6C25.3304 13.3387 25.0131 13.208 24.6237 13.208H23.8158V16.04H24.6237Z" fill="#5A5A79"/>
<path d="M34.4078 16.704C33.8425 17.264 33.1491 17.544 32.3278 17.544C31.5065 17.544 30.8105 17.264 30.2398 16.704C29.6745 16.1387 29.3918 15.4454 29.3918 14.624C29.3918 13.8027 29.6745 13.112 30.2398 12.552C30.8105 11.9867 31.5065 11.704 32.3278 11.704C33.1491 11.704 33.8425 11.9867 34.4078 12.552C34.9785 13.112 35.2638 13.8027 35.2638 14.624C35.2638 15.4454 34.9785 16.1387 34.4078 16.704ZM31.2478 15.72C31.5358 16.0027 31.8958 16.144 32.3278 16.144C32.7598 16.144 33.1198 16.0027 33.4078 15.72C33.6958 15.432 33.8398 15.0667 33.8398 14.624C33.8398 14.1814 33.6958 13.8187 33.4078 13.536C33.1198 13.248 32.7598 13.104 32.3278 13.104C31.8958 13.104 31.5358 13.248 31.2478 13.536C30.9598 13.8187 30.8158 14.1814 30.8158 14.624C30.8158 15.0667 30.9598 15.432 31.2478 15.72Z" fill="#5A5A79"/>
<path d="M40.2321 17.544C39.3895 17.544 38.6908 17.2667 38.1361 16.712C37.5868 16.152 37.3121 15.456 37.3121 14.624C37.3121 13.792 37.5868 13.0987 38.1361 12.544C38.6908 11.984 39.3895 11.704 40.2321 11.704C40.7388 11.704 41.2081 11.824 41.6401 12.064C42.0721 12.304 42.4108 12.6267 42.6561 13.032L41.4161 13.744C41.3095 13.5467 41.1495 13.392 40.9361 13.28C40.7281 13.1627 40.4935 13.104 40.2321 13.104C39.7841 13.104 39.4215 13.2454 39.1441 13.528C38.8721 13.8054 38.7361 14.1707 38.7361 14.624C38.7361 15.0774 38.8721 15.4454 39.1441 15.728C39.4215 16.0054 39.7841 16.144 40.2321 16.144C40.4935 16.144 40.7281 16.088 40.9361 15.976C41.1495 15.8587 41.3095 15.6987 41.4161 15.496L42.6561 16.216C42.4108 16.6267 42.0721 16.952 41.6401 17.192C41.2135 17.4267 40.7441 17.544 40.2321 17.544Z" fill="#5A5A79"/>
<rect x="7.5" y="22.544" width="50" height="1" fill="#5A5A79"/>
<rect x="7.5" y="28.544" width="50" height="1" fill="#5A5A79"/>
<rect x="7.5" y="34.544" width="50" height="1" fill="#5A5A79"/>
<rect x="7.5" y="40.544" width="50" height="1" fill="#5A5A79"/>
<rect x="7.5" y="46.544" width="50" height="1" fill="#5A5A79"/>
<rect x="20" y="52.544" width="25" height="1" fill="#5A5A79"/>
<rect x="0.5" y="0.624023" width="64" height="64" stroke="#E6E6E6"/>
</svg>
