<svg width="65" height="66" viewBox="0 0 65 66" fill="none" xmlns="http://www.w3.org/2000/svg">
<path d="M35.9404 33.9033C36.542 34.375 37.3076 34.8831 38.2373 35.4274C39.3128 35.3004 40.3792 35.2369 41.4365 35.2369C44.1162 35.2369 45.7295 35.6815 46.2764 36.5706C46.568 36.9698 46.5863 37.4416 46.3311 37.9859C46.3311 38.0041 46.3219 38.0222 46.3037 38.0404L46.249 38.0948V38.122C46.1396 38.8115 45.4925 39.1563 44.3076 39.1563C43.4326 39.1563 42.3844 38.9748 41.1631 38.6119C39.9417 38.249 38.7568 37.7682 37.6084 37.1694C33.5798 37.6049 30.0068 38.3579 26.8896 39.4285C24.1006 44.1825 21.8949 46.5595 20.2725 46.5595C19.999 46.5595 19.7438 46.496 19.5068 46.369L18.8506 46.0424C18.8324 46.0242 18.7777 45.9789 18.6865 45.9063C18.5042 45.7248 18.4495 45.3982 18.5225 44.9264C18.6865 44.2006 19.1969 43.3705 20.0537 42.436C20.9105 41.5015 22.1136 40.626 23.6631 39.8095C23.9183 39.6462 24.1279 39.7006 24.292 39.9728C24.3285 40.0091 24.3467 40.0454 24.3467 40.0817C25.2946 38.5393 26.2699 36.752 27.2725 34.7198C28.512 32.252 29.46 29.875 30.1162 27.5887C29.6787 26.1008 29.4007 24.6538 29.2822 23.2475C29.1637 21.8413 29.223 20.6845 29.46 19.7772C29.6605 19.0514 30.0433 18.6885 30.6084 18.6885H31.21C31.6292 18.6885 31.9482 18.8246 32.167 19.0968C32.4951 19.4779 32.5771 20.0948 32.4131 20.9476C32.3766 21.0565 32.3402 21.1291 32.3037 21.1654C32.3219 21.2198 32.3311 21.2924 32.3311 21.3831V22.1996C32.2946 24.4315 32.167 26.1734 31.9482 27.4254C32.9508 30.4012 34.2816 32.5605 35.9404 33.9033ZM20.1904 45.0897C21.1383 44.6543 22.387 43.2208 23.9365 40.7893C23.0068 41.5151 22.2093 42.2772 21.5439 43.0756C20.8786 43.874 20.4274 44.5454 20.1904 45.0897ZM31.0732 20.0494C30.7998 20.8115 30.7816 22.0091 31.0186 23.6422C31.0368 23.5152 31.1006 23.116 31.21 22.4446C31.21 22.3902 31.2738 22 31.4014 21.2742C31.4196 21.2016 31.4561 21.1291 31.5107 21.0565C31.4925 21.0383 31.4834 21.0202 31.4834 21.002C31.4652 20.9658 31.4561 20.9385 31.4561 20.9204C31.4378 20.5212 31.3193 20.1946 31.1006 19.9406C31.1006 19.9587 31.0915 19.9768 31.0732 19.995V20.0494ZM27.6826 38.0404C30.1436 37.0605 32.7321 36.3256 35.4482 35.8357C35.4118 35.8176 35.2933 35.7314 35.0928 35.5771C34.8923 35.4229 34.7464 35.3004 34.6553 35.2097C33.2699 33.994 32.1123 32.3972 31.1826 30.4194C30.6904 31.9799 29.9339 33.7672 28.9131 35.7813C28.3662 36.7974 27.9561 37.5504 27.6826 38.0404ZM45.3467 37.6049C44.9092 37.1694 43.6331 36.9516 41.5186 36.9516C42.904 37.4597 44.0342 37.7137 44.9092 37.7137C45.1644 37.7137 45.3285 37.7047 45.4014 37.6865C45.4014 37.6684 45.3831 37.6412 45.3467 37.6049Z" fill="#5A5A79"/>
<rect x="0.5" y="0.624023" width="64" height="64" stroke="#E6E6E6"/>
</svg>
