<svg width="65" height="66" viewBox="0 0 65 66" fill="none" xmlns="http://www.w3.org/2000/svg">
<path d="M29.3759 10.1375C29.2322 10.149 28.7551 10.1835 28.3125 10.2179C26.0017 10.3961 23.3748 10.8502 20.6616 11.5343C18.713 12.0229 17.6209 12.4195 16.0114 13.207C10.907 15.7132 6.88905 20.2255 4.98641 25.5943C4.15293 27.9338 3.7793 30.1123 3.7793 32.6358C3.7793 35.9237 4.46908 38.8898 5.9521 41.9191C7.10173 44.2701 8.51578 46.2244 10.3839 48.0409C12.5165 50.1159 14.833 51.6277 17.5519 52.7314C20.1386 53.7775 24.8521 54.7605 28.7148 55.0594C29.8242 55.1456 32.75 55.1456 33.9744 55.0594C40.8147 54.5765 47.4136 52.6566 53.0698 49.5066L53.6906 49.1617V44.2873C53.6906 41.6087 53.6733 39.4186 53.6561 39.4186C53.6389 39.4186 53.2307 39.6428 52.7536 39.9187C48.3793 42.4249 43.3726 43.8389 38.8891 43.8447C36.8772 43.8447 35.4459 43.5343 33.7732 42.7295C30.3186 41.0683 27.9561 37.7344 27.5135 33.8946C27.4042 32.9922 27.3985 32.4116 27.479 31.5954C27.8813 27.6291 30.1691 24.3009 33.6927 22.5535C35.5896 21.6108 37.429 21.2774 39.8835 21.4154C42.976 21.5993 45.6317 22.1914 48.6667 23.387C49.8853 23.8698 52.0696 24.9217 53.041 25.5023C53.3629 25.6977 53.6446 25.8529 53.6618 25.8529C53.6791 25.8529 53.6848 23.6514 53.6791 20.9555L53.6618 16.0581L53.2307 15.8109C52.5582 15.42 50.6326 14.4601 49.7473 14.0692C44.9879 11.9539 39.9352 10.6778 34.4917 10.2122C33.7847 10.1547 29.8817 10.0972 29.3759 10.1375ZM35.124 11.4193C41.2343 12.0286 47.1492 13.7933 52.0696 16.4834L52.5984 16.7766V20.2197C52.5984 22.5248 52.5812 23.6686 52.541 23.6686C52.5065 23.6686 52.2478 23.5537 51.9661 23.41C49.2932 22.0649 45.9995 21.0245 42.976 20.5589C41.1021 20.2715 38.7971 20.1508 37.567 20.2715C34.5435 20.5761 31.951 21.8292 29.7955 24.025C26.565 27.313 25.4671 32.1242 26.9386 36.5388C27.5479 38.3782 28.5654 39.9992 29.9737 41.4017C31.9108 43.3274 34.3883 44.5517 37.0497 44.9081C38.2625 45.0691 40.4008 45.0231 42.2058 44.7874C45.3845 44.385 48.7874 43.3618 51.6385 41.9535C52.1731 41.6949 52.5639 41.5339 52.5754 41.5684C52.5869 41.6029 52.5927 43.1837 52.5869 45.0748L52.5697 48.5179L51.8512 48.9088C49.7876 50.0355 46.7641 51.2713 44.2349 52.0358C39.8893 53.3464 35.7448 53.973 31.3877 53.9845C27.9273 53.9902 24.8003 53.5821 20.8973 52.6049C18.9889 52.1278 17.7071 51.6507 16.1206 50.8345C11.3266 48.3627 7.6823 44.1378 5.98084 39.0852C5.23933 36.8779 4.93468 35.0443 4.92893 32.722C4.92318 31.2045 4.97491 30.5549 5.20484 29.1984C5.55548 27.1635 6.14179 25.4161 7.10173 23.5019C9.37226 18.9724 13.2925 15.397 18.0232 13.5346C19.0752 13.1208 19.5523 12.9771 21.041 12.6034C23.7024 11.9424 26.1511 11.5343 28.801 11.3101C29.8874 11.2181 33.7962 11.2871 35.124 11.4193Z" fill="#5A5A79"/>
<path d="M16.0978 20.306C15.0688 20.4727 14.0629 20.8405 13.2524 21.3349C11.2923 22.5248 10.0277 24.3124 9.5276 26.6002C9.41264 27.1348 9.40689 27.3015 9.38965 34.0901C9.36665 41.6202 9.36665 41.5684 9.67705 42.3387C9.90123 42.9077 10.1714 43.3101 10.6198 43.7527C11.298 44.4367 12.2867 44.9138 13.1489 44.9771L13.5686 45.0116V36.2859C13.5686 26.6347 13.5456 27.2842 13.9422 26.4565C14.3043 25.715 14.8849 25.1402 15.6666 24.7608C16.2874 24.4676 16.6496 24.3872 17.3623 24.3929C18.397 24.4044 19.2018 24.7493 19.9605 25.5138C21.0872 26.6462 21.3573 28.3304 20.6445 29.7904C19.9605 31.1872 18.3913 32.0265 16.845 31.8368C16.4541 31.785 15.954 31.6413 15.5057 31.4574C15.4137 31.4172 15.408 31.5321 15.4195 33.6187L15.4367 35.826L15.8391 35.9007C16.4714 36.0272 18.1498 36.0214 18.7419 35.895C19.5237 35.7283 19.995 35.5731 20.6331 35.2742C21.4953 34.8661 22.1333 34.4177 22.8576 33.6992C24.0819 32.4806 24.812 31.0665 25.0936 29.3651C25.2258 28.5891 25.1856 27.152 25.0189 26.4278C24.789 25.4448 24.3981 24.5366 23.852 23.6974C23.4784 23.1283 22.3747 22.0189 21.7884 21.6165C20.9205 21.0302 19.9375 20.6106 18.8856 20.3807C18.1958 20.2312 16.7645 20.191 16.0978 20.306Z" fill="#5A5A79"/>
<path d="M46.1602 29.2444V31.4861L48.0456 31.4976L49.9252 31.5149L49.9424 34.8603L49.9539 38.2115H53.719H57.484V34.8488V31.4861H59.3522H61.2203V29.2444V27.0026H53.6902H46.1602V29.2444ZM60.0707 29.2444V30.3365H58.2026H56.3344V33.6934C56.3344 36.6997 56.3229 37.0504 56.2424 37.0848C56.1907 37.1021 55.0181 37.1193 53.627 37.1193H51.1036L51.0921 33.7394L51.0748 30.3652L49.1952 30.348L47.3098 30.3365V29.2444V28.1522H53.6902H60.0707V29.2444Z" fill="#5A5A79"/>
<rect x="0.5" y="0.624023" width="64" height="64" stroke="#E6E6E6"/>
</svg>
