<svg width="16" height="24" viewBox="0 0 16 24" fill="none" xmlns="http://www.w3.org/2000/svg">
<path d="M7.84264 0C9.94416 0 11.6802 0.568528 13.0508 1.70558C14.4213 2.84264 15.1066 4.38071 15.1066 6.3198C15.1066 7.75127 14.7614 8.8731 14.0711 9.68528C13.3604 10.5178 12.6142 11.2081 11.8325 11.7563C11.6904 11.8579 11.3401 12.1066 10.7817 12.5025C10.2234 12.8883 9.81218 13.1777 9.54822 13.3706C8.86802 13.868 8.52792 14.5228 8.52792 15.335V16.1421H4.62944V15.0609C4.62944 13.8223 4.96954 12.8325 5.64975 12.0914C6.23858 11.4112 6.9797 10.7462 7.8731 10.0964C8.79696 9.4264 9.533 8.87817 10.0812 8.45178C10.7513 7.90355 11.0863 7.22335 11.0863 6.41117C11.0863 5.49746 10.7716 4.7868 10.1421 4.27919C9.51269 3.77157 8.71066 3.51777 7.73604 3.51777C6.59899 3.51777 5.67513 3.82741 4.96447 4.4467C4.25381 5.06599 3.82741 5.86802 3.68528 6.85279L0 6.07614C0.274112 4.28934 1.13706 2.82234 2.58883 1.67513C4.01015 0.558376 5.76142 0 7.84264 0ZM6.71574 24C5.97462 24 5.36548 23.7766 4.88833 23.3299C4.42132 22.8832 4.18782 22.2995 4.18782 21.5787C4.18782 20.8376 4.42132 20.2386 4.88833 19.7817C5.36548 19.3147 5.97462 19.0812 6.71574 19.0812C7.46701 19.0812 8.07614 19.3147 8.54315 19.7817C9.01015 20.2386 9.24366 20.8376 9.24366 21.5787C9.24366 22.3096 9.01015 22.8985 8.54315 23.3452C8.07614 23.7817 7.46701 24 6.71574 24Z" fill="currentColor"/>
</svg>
