<svg width="20" height="17" viewBox="0 0 20 17" fill="none" xmlns="http://www.w3.org/2000/svg">
<path fill-rule="evenodd" clip-rule="evenodd" d="M0 2.08267C0 3.19485 0.89543 4.09645 2 4.09645C3.10457 4.09645 4 3.19485 4 2.08267C4 0.970494 3.10457 0.0688934 2 0.0688934C0.89543 0.0688934 0 0.970494 0 2.08267ZM6 1.07578H20V3.08956H6V1.07578ZM20 7.11713H6V9.13091H20V7.11713ZM6 15.1722H20V13.1585H6V15.1722ZM0 14.1654C0 15.2775 0.89543 16.1791 2 16.1791C3.10457 16.1791 4 15.2775 4 14.1654C4 13.0532 3.10457 12.1516 2 12.1516C0.89543 12.1516 0 13.0532 0 14.1654ZM2 10.1378C0.89543 10.1378 0 9.2362 0 8.12401C0 7.01183 0.89543 6.11023 2 6.11023C3.10457 6.11023 4 7.01183 4 8.12401C4 9.2362 3.10457 10.1378 2 10.1378Z" fill="currentColor"/>
</svg>
