<svg width="21" height="24" viewBox="0 0 21 24" fill="none" xmlns="http://www.w3.org/2000/svg">
<path d="M12.2734 14.8906H0.445312V11.7812H12.1953C13.2474 11.7812 14.0964 11.6198 14.7422 11.2969C15.388 10.9635 15.862 10.5 16.1641 9.90625C16.4661 9.3125 16.6172 8.61979 16.6172 7.82812C16.6172 7.11979 16.4661 6.45833 16.1641 5.84375C15.862 5.22917 15.3932 4.72917 14.7578 4.34375C14.1224 3.94792 13.2943 3.75 12.2734 3.75H7.55469V23.375H3.63281V0.625H12.2734C14.0234 0.625 15.513 0.932292 16.7422 1.54688C17.9714 2.16146 18.9141 3.01042 19.5703 4.09375C20.2266 5.16667 20.5547 6.40104 20.5547 7.79688C20.5547 9.28646 20.2214 10.5625 19.5547 11.625C18.8984 12.6771 17.9505 13.4844 16.7109 14.0469C15.4818 14.6094 14.0026 14.8906 12.2734 14.8906ZM12.6484 16.5625V19.6719H0.445312V16.5625H12.6484Z" fill="white"/>
</svg>
