<svg width="16" height="16" viewBox="0 0 16 16" fill="none" xmlns="http://www.w3.org/2000/svg">
<path fill-rule="evenodd" clip-rule="evenodd" d="M0.84668 6.49988C0.84668 9.81359 3.51459 12.4999 6.80562 12.4999C8.18267 12.4999 9.45062 12.0296 10.4597 11.2398L14.4725 15.2802L15.5259 14.2195L11.5131 10.1791C12.2975 9.1631 12.7646 7.88641 12.7646 6.49988C12.7646 3.18617 10.0967 0.499878 6.80562 0.499878C3.51459 0.499878 0.84668 3.18617 0.84668 6.49988ZM6.80562 10.9999C9.2739 10.9999 11.2748 8.98516 11.2748 6.49988C11.2748 4.0146 9.2739 1.99988 6.80562 1.99988C4.33735 1.99988 2.33642 4.0146 2.33642 6.49988C2.33642 8.98516 4.33735 10.9999 6.80562 10.9999ZM6.06075 3.49988V5.74988H3.82615V7.24988H6.06075V9.49988H7.55049V7.24988H9.78509V5.74988H7.55049V3.49988H6.06075Z" fill="#5A5A79"/>
</svg>
