<svg width="22" height="22" viewBox="0 0 22 22" fill="none" xmlns="http://www.w3.org/2000/svg">
<path fill-rule="evenodd" clip-rule="evenodd" d="M4.53218 2.21551C4.33843 2.21509 4.15167 2.23717 3.97419 2.27915C3.7309 1.73923 3.40954 1.25483 3.04403 0.886803C2.42366 0.262159 1.44524 0.0158691 0.0908203 0.0158691V2.21272C0.918218 2.21272 1.39435 2.33257 1.50125 2.44021C1.91358 2.85538 2.27264 3.69896 2.27264 4.40957L2.2836 4.56491L3.35255 12.0991C1.56394 12.1925 0.178309 13.5911 0.0921606 15.3394L0.0908203 16.4923C0.196443 18.298 1.57746 19.6871 3.30163 19.7858L3.54928 19.7861C3.99817 21.0667 5.21079 21.9844 6.63627 21.9844C8.06124 21.9844 9.2735 21.0674 9.72278 19.7875H12.277C12.7263 21.0674 13.9386 21.9844 15.3635 21.9844C17.171 21.9844 18.6363 20.509 18.6363 18.6891C18.6363 16.8692 17.171 15.3938 15.3635 15.3938C13.9386 15.3938 12.7263 16.3108 12.277 17.5907H9.72278C9.2735 16.3108 8.06124 15.3938 6.63627 15.3938C5.21131 15.3938 3.99905 16.3108 3.54977 17.5907H3.36355C2.80719 17.5571 2.30813 17.0551 2.27068 16.4265L2.27264 15.3938C2.30205 14.8241 2.7977 14.325 3.41761 14.2941L5.57121 14.2946L5.58682 14.2954H16.5819L16.743 14.244C17.5701 13.9797 18.2323 13.3525 18.5458 12.5407L18.6607 12.3117L19.0341 11.5668C19.4204 10.7957 19.8067 10.0234 20.1832 9.26879C21.1052 7.42044 21.6851 6.24577 21.8136 5.95731C22.4731 4.47597 21.1371 3.33582 19.7716 3.31154L4.53218 2.21551ZM16.2029 12.0986H5.6685C5.59845 12.0789 5.54507 12.0192 5.53462 11.9448L4.46565 4.41038L19.6109 5.50242C19.3459 6.04658 18.8641 7.01851 18.2335 8.28272L18.2177 8.3144C17.8577 9.03599 17.4719 9.80729 17.0861 10.5773L16.7132 11.3212L16.5718 11.603L16.5186 11.7275C16.4616 11.8874 16.3484 12.0188 16.2029 12.0986ZM15.3635 19.7875C15.966 19.7875 16.4545 19.2957 16.4545 18.6891C16.4545 18.0825 15.966 17.5907 15.3635 17.5907C14.7611 17.5907 14.2726 18.0825 14.2726 18.6891C14.2726 19.2957 14.7611 19.7875 15.3635 19.7875ZM7.72718 18.6891C7.72718 19.2957 7.23877 19.7875 6.63627 19.7875C6.03378 19.7875 5.54537 19.2957 5.54537 18.6891C5.54537 18.0825 6.03378 17.5907 6.63627 17.5907C7.23877 17.5907 7.72718 18.0825 7.72718 18.6891Z" fill="currentColor"/>
</svg>
