<svg width="19" height="19" viewBox="0 0 19 19" fill="none" xmlns="http://www.w3.org/2000/svg">
<path d="M13.625 16.5566H6.125C3.3875 16.5566 1.8125 14.9816 1.8125 12.2441V6.99414C1.8125 4.25664 3.3875 2.68164 6.125 2.68164H13.625C16.3625 2.68164 17.9375 4.25664 17.9375 6.99414V12.2441C17.9375 14.9816 16.3625 16.5566 13.625 16.5566ZM6.125 3.80664C3.98 3.80664 2.9375 4.84914 2.9375 6.99414V12.2441C2.9375 14.3891 3.98 15.4316 6.125 15.4316H13.625C15.77 15.4316 16.8125 14.3891 16.8125 12.2441V6.99414C16.8125 4.84914 15.77 3.80664 13.625 3.80664H6.125Z" fill="white"/>
<path d="M9.87483 10.2716C9.24483 10.2716 8.60734 10.0766 8.11984 9.67912L5.77233 7.80412C5.53233 7.60912 5.48734 7.25662 5.68234 7.01662C5.87734 6.77662 6.22984 6.73162 6.46984 6.92662L8.81733 8.80162C9.38733 9.25912 10.3548 9.25912 10.9248 8.80162L13.2723 6.92662C13.5123 6.73162 13.8723 6.76912 14.0598 7.01662C14.2548 7.25662 14.2173 7.61662 13.9698 7.80412L11.6223 9.67912C11.1423 10.0766 10.5048 10.2716 9.87483 10.2716Z" fill="white"/>
</svg>
