<svg width="40" height="41" viewBox="0 0 40 41" fill="none" xmlns="http://www.w3.org/2000/svg">
<path d="M0 3.12402C0 1.46717 1.34315 0.124023 3 0.124023H37C38.6569 0.124023 40 1.46717 40 3.12402V37.124C40 38.7809 38.6569 40.124 37 40.124H3C1.34315 40.124 0 38.7809 0 37.124V3.12402Z" fill="#419FD9"/>
<path d="M27.9738 13.0248C27.78 12.862 27.5455 12.7551 27.2956 12.7154C27.0457 12.6758 26.7896 12.705 26.555 12.7998L12.2363 18.5311C12.0275 18.6178 11.8492 18.7644 11.7237 18.9523C11.5982 19.1403 11.5312 19.3613 11.5312 19.5873C11.5312 19.8133 11.5982 20.0343 11.7237 20.2223C11.8492 20.4103 12.0275 20.5569 12.2363 20.6436L13.1613 21.0248C13.3138 21.0893 13.4856 21.0907 13.6392 21.0286C13.7927 20.9665 13.9153 20.846 13.98 20.6936C14.0118 20.6177 14.0282 20.5362 14.0284 20.4539C14.0287 20.3717 14.0126 20.2902 13.9813 20.2141C13.9499 20.138 13.9039 20.0689 13.8457 20.0107C13.7876 19.9524 13.7185 19.9063 13.6425 19.8748L12.955 19.5936L27.0238 13.9686C27.0454 13.9553 27.0703 13.9483 27.0956 13.9483C27.121 13.9483 27.1459 13.9553 27.1675 13.9686C27.1879 13.9859 27.2033 14.0083 27.2121 14.0336C27.2209 14.0589 27.2227 14.0861 27.2175 14.1123L24.6488 26.0998C24.6403 26.1425 24.6209 26.1823 24.5924 26.2151C24.5639 26.248 24.5273 26.2729 24.4863 26.2873C24.446 26.3033 24.4021 26.3082 24.3593 26.3017C24.3164 26.2951 24.2761 26.2772 24.2425 26.2498L19.2425 22.3498L24.1363 17.4061C24.2408 17.2976 24.3026 17.155 24.3104 17.0046C24.3182 16.8541 24.2714 16.706 24.1786 16.5873C24.0858 16.4686 23.9532 16.3875 23.8054 16.3588C23.6575 16.3301 23.5042 16.3557 23.3738 16.4311L16.1988 20.6811C16.1191 20.7171 16.0478 20.7694 15.9896 20.8347C15.9314 20.9 15.8876 20.9767 15.8609 21.06C15.8342 21.1433 15.8254 21.2313 15.8348 21.3182C15.8443 21.4051 15.8719 21.4891 15.9158 21.5647C15.9598 21.6403 16.0191 21.7059 16.09 21.7571C16.1609 21.8083 16.2417 21.8441 16.3273 21.8622C16.4128 21.8802 16.5013 21.8801 16.5868 21.8618C16.6723 21.8435 16.753 21.8075 16.8238 21.7561L19.8425 19.9748L18.3738 21.4686C18.2394 21.5948 18.1346 21.7492 18.0669 21.9207C17.9993 22.0922 17.9704 22.2765 17.9823 22.4605C17.9943 22.6445 18.0468 22.8236 18.136 22.9849C18.2253 23.1462 18.3492 23.2857 18.4988 23.3936L23.4988 27.2373C23.7619 27.4404 24.0851 27.5503 24.4175 27.5498C24.5945 27.5485 24.77 27.5168 24.9363 27.4561C25.175 27.3703 25.3877 27.2248 25.5541 27.0332C25.7204 26.8417 25.8348 26.6107 25.8863 26.3623L28.4363 14.3873C28.4904 14.1396 28.4759 13.8818 28.3944 13.6418C28.3129 13.4017 28.1675 13.1884 27.9738 13.0248Z" fill="white"/>
</svg>
