<svg width="15" height="16" viewBox="0 0 15 16" fill="none" xmlns="http://www.w3.org/2000/svg">
<path fill-rule="evenodd" clip-rule="evenodd" d="M7.17391 15.0752C3.21187 15.0752 0 11.8412 0 7.85188C0 3.86254 3.21187 0.62854 7.17391 0.62854C11.136 0.62854 14.3478 3.86254 14.3478 7.85188C14.3478 11.8412 11.136 15.0752 7.17391 15.0752ZM7.17391 13.7619C10.4156 13.7619 13.0435 11.1159 13.0435 7.85188C13.0435 4.58788 10.4156 1.94187 7.17391 1.94187C3.93224 1.94187 1.30435 4.58788 1.30435 7.85188C1.30435 11.1159 3.93224 13.7619 7.17391 13.7619ZM10.4348 7.19522H7.82609V3.91188H6.52174V8.50855H10.4348V7.19522Z" fill="white"/>
</svg>
