<svg width="40" height="41" viewBox="0 0 40 41" fill="none" xmlns="http://www.w3.org/2000/svg">
<path d="M0 3.12402C0 1.46717 1.34315 0.124023 3 0.124023H37C38.6569 0.124023 40 1.46717 40 3.12402V37.1265C40 38.7834 38.6569 40.1265 37 40.1265H3C1.34315 40.1265 0 38.7834 0 37.1265V3.12402Z" fill="#7659EB"/>
<path d="M27.7446 12.0718C27.2215 11.6147 25.1044 10.1577 20.3841 10.1382C20.3841 10.1382 14.8195 9.82177 12.1093 12.1811C10.6018 13.6108 10.0704 15.7085 10.0128 18.3061C9.95512 20.9038 9.8851 25.771 14.8319 27.0913H14.836L14.8319 29.1069C14.8319 29.1069 14.7989 29.9233 15.3673 30.0874C16.0511 30.2905 16.4547 29.6694 17.1096 29.0015C17.468 28.6343 17.9622 28.0952 18.3371 27.6851C21.7228 27.9546 24.3218 27.3374 24.6184 27.2475C25.3021 27.0366 29.1697 26.5679 29.7958 21.7007C30.4466 16.6772 29.4828 13.5054 27.7446 12.0718ZM28.3171 21.3335C27.7858 25.396 24.6513 25.6538 24.0747 25.8296C23.8275 25.9038 21.5415 26.4429 18.6707 26.2671C18.6707 26.2671 16.5289 28.7163 15.8616 29.353C15.6433 29.56 15.4044 29.5405 15.4085 29.1304C15.4085 28.8608 15.425 25.7827 15.425 25.7827C15.4209 25.7827 15.4209 25.7827 15.425 25.7827C11.232 24.6811 11.4791 20.5366 11.5244 18.3686C11.5697 16.2007 12.0022 14.4233 13.2791 13.228C15.5733 11.2554 20.2976 11.5483 20.2976 11.5483C24.2888 11.564 26.2 12.7046 26.6448 13.0874C28.1153 14.2827 28.8649 17.1421 28.3171 21.3335ZM22.5919 18.1772C22.6083 18.5132 22.077 18.5366 22.0605 18.2007C22.0152 17.3413 21.591 16.9233 20.7178 16.8765C20.3635 16.8569 20.3965 16.353 20.7466 16.3726C21.8958 16.4311 22.5342 17.0561 22.5919 18.1772ZM23.428 18.6186C23.4692 16.9624 22.3777 15.6655 20.3059 15.521C19.9558 15.4976 19.9928 14.9936 20.3429 15.0171C22.7319 15.1811 24.0046 16.7397 23.9593 18.6304C23.9552 18.9663 23.4198 18.9507 23.428 18.6186ZM25.3639 19.1421C25.368 19.478 24.8325 19.4819 24.8325 19.146C24.8078 15.9624 22.5713 14.228 19.8569 14.2085C19.5068 14.2046 19.5068 13.7046 19.8569 13.7046C22.8925 13.7241 25.335 15.7124 25.3639 19.1421ZM24.8984 22.9741V22.9819C24.4536 23.7241 23.6216 24.5444 22.7649 24.2827L22.7566 24.271C21.8875 24.0405 19.8404 23.0405 18.5471 22.064C17.8799 21.564 17.2703 20.9741 16.8007 20.4077C16.3765 19.9038 15.9481 19.3061 15.5321 18.5874C14.6548 17.0835 14.4612 16.4116 14.4612 16.4116C14.1852 15.5991 15.0461 14.8101 15.8328 14.3882H15.841C16.2199 14.2007 16.5824 14.2632 16.8254 14.5405C16.8254 14.5405 17.3362 15.1186 17.5545 15.4038C17.7604 15.6694 18.0364 16.0952 18.1805 16.3335C18.4318 16.7593 18.2753 17.1929 18.0281 17.3726L17.5339 17.7476C17.2826 17.939 17.3156 18.2944 17.3156 18.2944C17.3156 18.2944 18.0487 20.9233 20.7878 21.5874C20.7878 21.5874 21.1626 21.6186 21.3644 21.3804L21.7598 20.9116C21.9493 20.6772 22.4065 20.5288 22.8555 20.7671C23.4609 21.0913 24.2312 21.5952 24.7419 22.0522C25.0302 22.2749 25.0961 22.6147 24.8984 22.9741Z" fill="white"/>
</svg>
