<svg width="40" height="41" viewBox="0 0 40 41" fill="none" xmlns="http://www.w3.org/2000/svg">
<path d="M0 3.12402C0 1.46717 1.34315 0.124023 3 0.124023H37C38.6569 0.124023 40 1.46717 40 3.12402V37.124C40 38.7809 38.6569 40.124 37 40.124H3C1.34315 40.124 0 38.7809 0 37.124V3.12402Z" fill="#5181B8"/>
<path fill-rule="evenodd" clip-rule="evenodd" d="M29.5411 14.9894C29.6802 14.5259 29.5411 14.1852 28.8794 14.1852H26.6914C26.135 14.1852 25.8787 14.4795 25.7396 14.8041C25.7396 14.8041 24.6269 17.5161 23.0505 19.2778C22.5406 19.7877 22.3088 19.9498 22.0306 19.9498C21.8915 19.9498 21.6902 19.7877 21.6902 19.3242V14.9894C21.6902 14.4331 21.5288 14.1852 21.0651 14.1852H17.6268C17.2792 14.1852 17.0701 14.4434 17.0701 14.6881C17.0701 15.2156 17.8581 15.3372 17.9394 16.8206V20.0428C17.9394 20.7492 17.8118 20.8774 17.5336 20.8774C16.7919 20.8774 14.9877 18.153 13.9175 15.0358C13.7077 14.4299 13.4974 14.1852 12.9382 14.1852H10.7502C10.125 14.1852 10 14.4795 10 14.8041C10 15.3836 10.7419 18.258 13.4539 22.0595C15.2622 24.6554 17.8093 26.063 20.1274 26.063C21.5183 26.063 21.6902 25.7504 21.6902 25.212V23.2498C21.6902 22.6247 21.822 22.4999 22.2622 22.4999C22.587 22.4999 23.1432 22.6622 24.4415 23.9139C25.925 25.3972 26.1694 26.063 27.004 26.063H29.192C29.8171 26.063 30.1297 25.7504 29.9493 25.1335C29.7521 24.5187 29.0438 23.6269 28.1039 22.5695C27.594 21.9667 26.8289 21.3176 26.5973 20.9932C26.2727 20.5759 26.3654 20.3905 26.5973 20.0198C26.5973 20.0198 29.2629 16.2646 29.5411 14.9896V14.9894Z" fill="white"/>
</svg>
