<svg width="40" height="41" viewBox="0 0 40 41" fill="none" xmlns="http://www.w3.org/2000/svg">
<path d="M0 3.12402C0 1.46717 1.34315 0.124023 3 0.124023H37C38.6569 0.124023 40 1.46717 40 3.12402V37.124C40 38.7809 38.6569 40.124 37 40.124H3C1.34315 40.124 0 38.7809 0 37.124V3.12402Z" fill="#04BB00"/>
<path d="M27.0045 13.0303C25.1339 11.1553 22.6429 10.124 19.9955 10.124C14.5312 10.124 10.0848 14.5705 10.0848 20.0347C10.0848 21.7803 10.5402 23.4856 11.4062 24.9901L10 30.124L15.2545 28.7446C16.7009 29.5347 18.3304 29.9499 19.9911 29.9499H19.9955C25.4554 29.9499 30 25.5035 30 20.0392C30 17.3919 28.875 14.9053 27.0045 13.0303ZM19.9955 28.2803C18.5134 28.2803 17.0625 27.883 15.7991 27.133L15.5 26.9544L12.3839 27.7713L13.2143 24.7312L13.0179 24.4187C12.192 23.1062 11.7589 21.5928 11.7589 20.0347C11.7589 15.4946 15.4554 11.7981 20 11.7981C22.2009 11.7981 24.2679 12.6553 25.8214 14.2133C27.375 15.7713 28.3304 17.8383 28.3259 20.0392C28.3259 24.5838 24.5357 28.2803 19.9955 28.2803ZM24.5134 22.1106C24.2679 21.9856 23.0491 21.3874 22.8214 21.3071C22.5938 21.2222 22.4286 21.1821 22.2634 21.4321C22.0982 21.6821 21.625 22.2356 21.4777 22.4053C21.3348 22.5705 21.1875 22.5928 20.942 22.4678C19.4866 21.7401 18.5312 21.1687 17.5714 19.5213C17.317 19.0838 17.8259 19.1151 18.2991 18.1687C18.3795 18.0035 18.3393 17.8606 18.2768 17.7356C18.2143 17.6106 17.7188 16.3919 17.5134 15.8963C17.3125 15.4142 17.1071 15.4812 16.9554 15.4722C16.8125 15.4633 16.6473 15.4633 16.4821 15.4633C16.317 15.4633 16.0491 15.5258 15.8214 15.7713C15.5938 16.0213 14.9554 16.6196 14.9554 17.8383C14.9554 19.0571 15.8438 20.2356 15.9643 20.4008C16.0893 20.566 17.7098 23.066 20.1964 24.1419C21.7679 24.8205 22.3839 24.8785 23.1696 24.7624C23.6473 24.691 24.6339 24.1642 24.8393 23.5838C25.0446 23.0035 25.0446 22.508 24.9821 22.4053C24.9241 22.2937 24.7589 22.2312 24.5134 22.1106Z" fill="white"/>
</svg>
