<svg width="254" height="42" viewBox="0 0 254 42" fill="none" xmlns="http://www.w3.org/2000/svg">
<path d="M25.2715 41H0.486328V0.5H24.7178V3.74316H3.99316V17.876H18.9434V21.1191H3.99316V37.7568H25.2715V41ZM52.3457 41H38.9204V7.25H51.5767C54.4624 7.25 56.7622 8.01904 58.4761 9.55713C60.2046 11.0806 61.0688 13.146 61.0688 15.7534C61.0688 17.5405 60.644 19.0713 59.7944 20.3457C58.9448 21.6201 57.751 22.5796 56.2129 23.2241C58.2637 23.7808 59.8457 24.7915 60.959 26.2563C62.0869 27.7212 62.6509 29.501 62.6509 31.5957C62.6509 34.4668 61.7134 36.752 59.8384 38.4512C57.978 40.1504 55.4805 41 52.3457 41ZM51.313 10.5898H42.7656V21.8838H51.4448C53.2319 21.8838 54.6455 21.3564 55.6855 20.3018C56.7256 19.2471 57.2456 17.8481 57.2456 16.105C57.2456 14.4204 56.7036 13.0801 55.6196 12.084C54.5503 11.0879 53.1147 10.5898 51.313 10.5898ZM52.126 25.2456H42.7656V37.6602H52.1699C54.1768 37.6602 55.7734 37.1182 56.96 36.0342C58.1465 34.9502 58.7397 33.4707 58.7397 31.5957C58.7397 29.6914 58.1392 28.1606 56.938 27.0034C55.7515 25.8315 54.1475 25.2456 52.126 25.2456ZM81.2744 41H77.4292V7.25H89.6899C93.0005 7.25 95.6665 8.20215 97.688 10.1064C99.7241 12.0107 100.742 14.4497 100.742 17.4233C100.742 20.3677 99.7241 22.814 97.688 24.7622C95.6519 26.7104 92.9858 27.6846 89.6899 27.6846H81.2744V41ZM89.6899 10.7656H81.2744V24.1689H89.6899C91.9019 24.1689 93.6523 23.5464 94.9414 22.3013C96.2305 21.0562 96.875 19.4302 96.875 17.4233C96.875 15.4165 96.2305 13.8052 94.9414 12.5894C93.667 11.3735 91.9165 10.7656 89.6899 10.7656ZM112.422 41H108.599L121.497 7.25H125.738L138.702 41H134.637L130.242 29.3545H116.817L112.422 41ZM123.541 11.6226L118.135 25.8828H128.924L123.541 11.6226ZM160.885 41.3516C159.215 41.3516 157.669 41.1611 156.249 40.7803C154.828 40.3994 153.546 39.8281 152.403 39.0664C151.261 38.3047 150.309 37.3086 149.547 36.0781C148.785 34.8477 148.272 33.4268 148.009 31.8154L151.744 30.8706C152.154 33.229 153.158 34.9868 154.754 36.144C156.351 37.2866 158.409 37.8579 160.929 37.8579C163.448 37.8579 165.477 37.2866 167.015 36.144C168.568 35.0015 169.344 33.3828 169.344 31.2881C169.344 29.3838 168.744 27.9116 167.542 26.8716C166.356 25.8169 164.598 25.2896 162.269 25.2896H157.149V21.7959H162.181C164.217 21.7959 165.777 21.3052 166.861 20.3237C167.945 19.3276 168.487 17.9214 168.487 16.105C168.487 14.3325 167.784 12.9336 166.378 11.9082C164.986 10.8682 163.119 10.3481 160.775 10.3481C158.666 10.3481 156.842 10.8535 155.304 11.8643C153.78 12.8604 152.835 14.3398 152.469 16.3027L148.866 15.4897C149.496 12.7065 150.895 10.5825 153.062 9.11768C155.245 7.63818 157.816 6.89844 160.775 6.89844C164.349 6.89844 167.169 7.71875 169.234 9.35938C171.314 11.0439 172.354 13.2046 172.354 15.8413C172.354 17.4673 171.944 18.9321 171.124 20.2358C170.304 21.5396 169.154 22.5649 167.674 23.312C169.432 23.9126 170.794 24.9233 171.761 26.3442C172.728 27.7651 173.211 29.4424 173.211 31.376C173.211 34.3936 172.076 36.8105 169.806 38.627C167.55 40.4434 164.576 41.3516 160.885 41.3516ZM191.681 41H188.034V7.25H191.769V35.1992L211.039 7.25H214.687V41H210.951V13.0947L191.681 41ZM253.833 7.25V41H250.009V26.7837H242.209L232.541 41H228.168L237.99 26.564C235.72 26.271 233.771 25.2603 232.146 23.5317C230.549 21.8472 229.75 19.6719 229.75 17.0059C229.75 14.1641 230.725 11.813 232.673 9.95264C234.606 8.15088 237.097 7.25 240.144 7.25H253.833ZM240.144 23.2681H250.009V10.7656H240.188C238.239 10.7656 236.672 11.3369 235.485 12.4795C234.299 13.6221 233.706 15.1309 233.706 17.0059C233.706 18.8369 234.299 20.3384 235.485 21.5103C236.687 22.6821 238.239 23.2681 240.144 23.2681Z" fill="#002643"/>
</svg>
