<svg width="10" height="16" viewBox="0 0 10 16" fill="none" xmlns="http://www.w3.org/2000/svg">
<path d="M5.00022 2.89285C5.88411 2.89285 6.60308 3.61182 6.60308 4.4957C6.60308 5.37885 5.88392 6.09782 5.00022 6.09782C4.11689 6.09782 3.39774 5.37885 3.39774 4.4957C3.39755 3.61163 4.11708 2.89285 5.00022 2.89285ZM5.00022 8.36553C7.13526 8.36553 8.87153 6.62982 8.87153 4.4957C8.87153 2.36048 7.13545 0.624023 5.00022 0.624023C2.86537 0.624023 1.12891 2.36067 1.12891 4.4957C1.12891 6.62982 2.86537 8.36553 5.00022 8.36553ZM6.56639 11.5232C7.36278 11.3419 8.12278 11.0272 8.81427 10.5925C9.06884 10.4323 9.24936 10.1776 9.31611 9.88432C9.38287 9.59106 9.3304 9.2833 9.17024 9.02873C9.09103 8.90255 8.98772 8.79323 8.86622 8.70701C8.74473 8.62079 8.60743 8.55937 8.46217 8.52626C8.31692 8.49315 8.16657 8.48899 8.01971 8.51404C7.87285 8.53908 7.73237 8.59283 7.6063 8.67221C6.0203 9.66931 3.97903 9.66857 2.39433 8.67221C2.26828 8.59281 2.12781 8.53904 1.98097 8.51399C1.83412 8.48893 1.68377 8.49308 1.53852 8.5262C1.39328 8.55931 1.25599 8.62074 1.13451 8.70697C1.01303 8.7932 0.909752 8.90254 0.830575 9.02873C0.670365 9.28323 0.617806 9.59095 0.684456 9.8842C0.751106 10.1775 0.931507 10.4322 1.18598 10.5925C1.87743 11.027 2.63728 11.3417 3.4335 11.5232L1.26937 13.6878C1.05669 13.9005 0.937244 14.189 0.937296 14.4898C0.937348 14.7907 1.0569 15.0791 1.26965 15.2918C1.48239 15.5045 1.77091 15.6239 2.07173 15.6239C2.37255 15.6238 2.66103 15.5043 2.87371 15.2915L4.99985 13.165L7.12729 15.2917C7.23248 15.3971 7.35741 15.4806 7.49493 15.5377C7.63244 15.5947 7.77985 15.624 7.92872 15.624C8.07759 15.624 8.225 15.5947 8.36251 15.5377C8.50003 15.4806 8.62496 15.3971 8.73015 15.2917C8.83565 15.1865 8.91935 15.0616 8.97647 14.924C9.03358 14.7864 9.06298 14.6389 9.06298 14.4899C9.06298 14.3409 9.03358 14.1934 8.97647 14.0559C8.91935 13.9183 8.83565 13.7933 8.73015 13.6881L6.56639 11.5232Z" fill="black"/>
</svg>
